<svg width="197" height="96" viewBox="0 0 197 96" fill="none" xmlns="http://www.w3.org/2000/svg">
<rect width="196" height="96" fill="white"/>
<g style="mix-blend-mode:darken" clip-path="url(#clip0_4592_45085)">
<path fill-rule="evenodd" clip-rule="evenodd" d="M0 86H53V10H0L0 86Z" fill="black"/>
<path fill-rule="evenodd" clip-rule="evenodd" d="M35.547 21.3991C36.0552 22.8281 36.5037 25.1082 35.2779 26.2636C35.0088 26.4461 34.6804 26.6893 34.2319 26.5981C33.8132 26.2636 33.4545 25.7164 33.1854 25.2906C32.7669 24.5001 32.2586 23.7707 31.9895 22.9802H31.8998C31.5411 24.1352 31.8102 25.5643 31.3617 26.6893C31.3023 26.8717 31.0328 26.8717 30.8535 26.8717C30.6745 26.8717 30.4353 26.6893 30.3455 26.4461C30.0764 25.8987 30.2558 25.2906 30.2558 24.6825C30.3456 23.4359 30.5848 22.0984 31.1225 21.0342C31.3023 20.8821 31.4514 20.791 31.6308 20.791C31.9895 20.9734 32.2586 21.3079 32.4978 21.6728C33.2751 22.6458 33.7236 23.7707 34.5907 24.6825C34.6804 22.9802 34.0524 21.5815 33.8132 20.0004C33.8132 19.7272 33.7236 19.4531 33.9926 19.3623C34.7697 19.8183 35.1882 20.6998 35.547 21.3991Z" fill="white"/>
<path fill-rule="evenodd" clip-rule="evenodd" d="M42.0645 21.399C42.1243 21.4902 42.3037 21.6727 42.1243 21.855C41.616 22.1895 41.0181 22.0983 40.3903 22.0983H39.1046C39.0149 22.4632 38.9252 22.7369 38.8355 23.0713L40.749 23.1625C41.0181 23.345 40.9284 23.7706 40.9284 24.0443C40.1511 24.3175 39.2845 24.2263 38.5071 24.2263L38.3277 24.3175L37.9689 25.5642C38.9252 25.5642 39.882 25.1993 40.8387 25.2905C41.1078 25.473 41.2573 25.8074 41.1975 26.0811C40.2408 26.7804 39.1943 27.3277 38.0586 27.4794C37.371 27.4794 36.8328 27.2365 36.504 26.598C36.0555 25.8074 36.504 24.9256 36.7431 24.2263C36.7431 23.8618 36.6834 23.6186 36.7431 23.2537C36.9225 22.98 37.4607 23.2537 37.5504 22.828L37.7895 22.0071C37.5504 21.855 37.1019 21.9462 36.8328 21.6727L36.5937 21.0341L36.6834 20.9733C38.1483 20.7909 39.7026 20.5172 41.1975 20.6085C41.616 20.6997 41.7954 21.0341 42.0645 21.399Z" fill="white"/>
<path fill-rule="evenodd" clip-rule="evenodd" d="M30.1664 20.791C30.1664 20.9734 30.0767 21.1254 29.8973 21.2167C29.4787 21.4904 29.0302 21.4904 28.522 21.5816C27.2065 21.764 25.6522 21.4904 24.5161 22.0072L24.4264 22.0984C25.8316 22.5546 27.4756 22.4633 28.8509 22.889C29.2993 23.1626 29.718 23.5271 29.8077 24.0444C29.987 24.5914 29.8077 25.2907 29.6282 25.7164C28.522 26.8717 26.6987 27.0542 25.2037 26.5069C24.5161 26.1724 23.5594 25.6252 23.5594 24.8345C23.5594 24.3177 23.9182 23.8619 24.3367 23.71C25.2934 23.4359 26.4296 23.71 27.3859 23.9532L28.0735 24.3177C27.9838 24.8345 27.3859 24.8345 26.9375 24.9257C26.0109 25.1082 25.2934 24.0444 24.3367 24.4089C24.1872 24.5914 24.0975 24.6826 24.1872 24.8345C24.5161 25.4731 25.4728 25.2907 26.0708 25.2907C27.0271 25.2907 27.8942 25.017 28.7014 24.5914C28.7612 24.5001 28.8509 24.3177 28.7612 24.2264C27.3859 23.0714 25.2037 23.6188 23.6491 23.0714C23.38 22.889 23.2305 22.6458 23.2305 22.3721C23.2305 21.764 23.4697 21.1254 24.0078 20.8822C25.4728 20.0916 27.2962 20.0004 29.0302 20.3349C29.389 20.4261 29.8077 20.5174 30.1664 20.791Z" fill="white"/>
<path fill-rule="evenodd" clip-rule="evenodd" d="M22.4229 21.1253C22.5127 22.6457 22.6024 24.2263 22.6024 25.8074C22.5127 26.1723 22.6024 26.6893 22.1837 26.7804C21.825 26.8716 21.5559 26.6893 21.3167 26.598C21.0476 26.3548 21.0476 25.8986 20.958 25.5642C20.958 23.9531 21.0476 22.4632 21.3167 20.9733C21.4064 20.6997 21.4961 20.2436 21.7353 20.1523C22.1837 20.2436 22.3631 20.6997 22.4229 21.1253Z" fill="white"/>
<path fill-rule="evenodd" clip-rule="evenodd" d="M15.936 16.0176C17.67 17.4163 19.5831 19.2711 20.181 21.3991C20.6295 23.1626 19.8223 25.017 18.3576 26.0812C16.0257 27.6623 12.7971 27.9355 9.92729 27.1454C9.86749 27.4795 9.86749 28.0271 9.41898 28.0271C9.00047 27.9355 8.46225 28.2092 8.28295 27.6623C8.19324 27.3278 8.10354 26.8717 8.04374 26.4461C7.08701 25.8075 6.04099 25.2906 5.17396 24.5001C4.54604 23.7707 3.26051 22.8889 3.76872 21.8551C4.90485 20.5173 6.6385 20.2437 8.19324 20.0004C8.28295 20.0004 8.37255 19.9096 8.37255 19.8184C8.46225 18.7542 8.55195 17.5988 8.91076 16.6258C9.06027 16.3825 9.23967 16.6258 9.32928 16.717C10.1067 17.5988 9.92729 18.7542 10.017 19.8184L10.1067 19.9096C12.0197 19.9096 13.9332 20.0916 15.308 21.2167C15.7565 21.6728 15.936 22.1896 15.7565 22.737C15.4874 23.2539 14.9792 23.71 14.3517 23.71C14.0225 23.71 13.8435 23.5271 13.5744 23.4359V23.3451C13.8435 23.0714 14.3517 22.8281 14.4414 22.4633C13.0662 21.8551 11.6011 21.4903 10.017 21.4903C9.86749 22.8889 9.92729 24.3177 9.92729 25.7164L10.017 25.8075C12.8868 26.3549 16.0257 26.3549 17.9391 24.0444C18.8655 22.8281 18.2679 21.0342 17.4906 19.8184C15.1586 16.717 11.8403 15.2271 8.46225 14.1633C6.3698 13.7377 3.85842 13.3728 1.79587 13.8896C2.03467 13.8896 2.48349 13.9808 2.66249 14.3458C2.66249 14.437 2.48349 14.437 2.39389 14.5282C1.94538 14.6194 1.43716 14.5282 1.07835 14.3458C0.749441 13.8896 1.34746 13.5552 1.43716 13.1903C1.85567 12.7647 2.39389 12.6735 2.9017 12.5822C6.90761 11.7917 10.7939 13.1903 14.1126 14.9538L15.936 16.0176ZM8.19324 21.5816C8.10354 22.737 8.19324 24.0444 8.04374 25.1994C7.17671 24.9257 6.3698 24.4089 5.59247 23.9532C5.08426 23.6188 4.54604 23.1626 4.12753 22.5545C4.12753 22.2809 4.39664 22.1896 4.54604 22.0072C5.68218 21.764 6.9076 21.4903 8.19324 21.4903V21.5816Z" fill="white"/>
<path fill-rule="evenodd" clip-rule="evenodd" d="M25.054 14.8624C25.4726 14.9536 25.921 15.2269 26.1602 15.5618C26.519 16.6256 25.652 17.4161 24.9643 17.9634C23.8283 18.8452 22.5131 19.5441 21.1378 19.0276C20.7791 19.2101 20.6296 19.6354 20.1811 19.3621C19.9121 19.1188 19.8224 18.6628 19.9121 18.2371C19.4934 17.781 19.314 17.0816 19.6729 16.4736C20.3605 15.0448 21.8255 14.1631 23.32 14.1631C24.0076 14.1631 24.6056 14.3455 25.054 14.8624ZM22.1842 15.501C21.6461 16.0174 21.0481 16.5344 20.5399 17.2641C20.3605 16.8081 20.7791 16.3823 21.0481 16.1086C21.4069 15.7443 21.7358 15.5618 22.1842 15.501ZM25.2932 16.1086C25.3829 16.6256 24.785 17.0816 24.4262 17.3553C23.6489 17.781 22.6921 18.0546 21.7358 17.8722C21.9152 17.4161 22.3636 17.0816 22.6921 16.8081C23.32 16.2911 24.0973 15.653 24.9643 15.7443L25.2932 16.1086Z" fill="white"/>
<path fill-rule="evenodd" clip-rule="evenodd" d="M44.7546 20.6087C44.7546 21.9465 43.5289 22.7372 43.2602 23.9533C43.2602 24.2266 43.0804 24.5003 43.1701 24.7435C44.3062 23.5273 45.263 22.281 46.7279 21.308C46.9966 21.2168 47.2657 21.0343 47.5945 21.2168C48.4018 21.7642 48.6409 22.6459 48.6409 23.6189C48.4615 25.382 46.7279 26.9631 45.0836 27.4192C44.7546 27.4796 44.3062 27.4796 43.8876 27.4796C43.1701 29.1823 42.6622 31.0371 42.3035 32.861C41.9746 33.0434 41.7055 32.7091 41.4365 32.5266C40.7487 31.9188 40.9281 30.9458 41.1075 30.2161C41.4365 28.8174 41.8849 27.4192 42.3932 26.0813C41.6158 24.5915 42.4829 22.9803 43.2602 21.7642C43.6185 21.308 44.0371 20.7 44.5752 20.4263C44.7546 20.4263 44.7546 20.5175 44.7546 20.6087ZM47.5945 22.8283C47.7739 23.7101 47.3554 24.5003 46.6382 25.0171C46.13 25.4732 45.532 25.7165 44.9041 25.8076L44.9939 25.5645C45.7114 24.5003 46.3991 23.3452 47.3554 22.4635C47.5048 22.4635 47.5945 22.6459 47.5945 22.8283Z" fill="white"/>
<path fill-rule="evenodd" clip-rule="evenodd" d="M10.4655 46.5425L11.4218 48.2448H12.5579L8.55204 41.0698L4.48633 48.2448H5.59256L6.63858 46.5425H10.4655ZM10.0171 45.7519H7.0871L8.55204 42.9246L10.0171 45.7519Z" fill="white"/>
<path fill-rule="evenodd" clip-rule="evenodd" d="M21.2271 41.708C20.6292 41.3432 19.822 41.252 19.1342 41.252C16.6233 41.252 14.6201 42.7722 14.6201 44.8698C14.6201 46.8158 16.6233 48.3965 19.0446 48.3965C19.7323 48.3965 20.6292 48.2445 21.2271 47.88V46.907C20.6292 47.3631 19.822 47.6064 18.9549 47.6064C17.1315 47.6064 15.6665 46.2989 15.6665 44.7786C15.6665 43.2887 17.1315 41.9817 18.9549 41.9817C19.822 41.9817 20.6292 42.2249 21.2271 42.681V41.708Z" fill="white"/>
<path fill-rule="evenodd" clip-rule="evenodd" d="M26.609 42.1338H28.6118V41.3433H23.4697V42.1338H25.4729V48.2446H26.609V42.1338Z" fill="white"/>
<path fill-rule="evenodd" clip-rule="evenodd" d="M31.2129 48.2446H32.2589V41.3433H31.2129V48.2446Z" fill="white"/>
<path fill-rule="evenodd" clip-rule="evenodd" d="M35.8761 41.3433H34.6807L38.4175 48.5791L42.0646 41.3433H40.9284L38.4175 46.4815L35.8761 41.3433Z" fill="white"/>
<path fill-rule="evenodd" clip-rule="evenodd" d="M44.5752 48.2446H49.0894V47.4544H45.6216V44.8699H48.9997V44.0794H45.6216V42.1338H49.0894V41.3433H44.5752V48.2446Z" fill="white"/>
<path fill-rule="evenodd" clip-rule="evenodd" d="M4.99414 37.8167H6.04056V30.9458H4.99414V37.8167Z" fill="white"/>
<path fill-rule="evenodd" clip-rule="evenodd" d="M11.8408 37.8164H12.8872V32.7087L19.2251 38.1813V30.9455H18.1787V36.0528L11.8408 30.6719V37.8164Z" fill="white"/>
<path fill-rule="evenodd" clip-rule="evenodd" d="M27.2955 31.736H29.2987V30.9458H24.1865V31.736H26.2495V37.8167H27.2955V31.736Z" fill="white"/>
<path fill-rule="evenodd" clip-rule="evenodd" d="M34.4111 37.8167H38.9248V37.1174H35.4572V34.4725H38.8351V33.682H35.4572V31.736H38.9248V30.9458H34.4111V37.8167Z" fill="white"/>
<path fill-rule="evenodd" clip-rule="evenodd" d="M47.086 34.8982C48.3118 34.7157 49.0892 33.9252 49.0892 32.9522C49.0892 32.2529 48.7304 31.6448 48.0427 31.2803C47.3551 31.037 46.5781 30.9458 45.7709 30.9458H44.4854V37.8167H45.5317V34.8982H45.9503L48.4613 37.8167H49.7768L47.086 34.8982ZM45.5317 31.736H45.8606C46.9066 31.736 48.1324 31.9188 48.1324 32.9522C48.1324 34.1076 46.9963 34.1988 45.8606 34.1988H45.5317V31.736Z" fill="white"/>
<path fill-rule="evenodd" clip-rule="evenodd" d="M42.3527 77.1C37.4921 80.188 32.3505 81.6738 28.9545 82.3756H49.4979V69.4417C48.7875 71.6233 46.8553 74.2398 42.3527 77.1ZM13.3606 55.7705C15.2805 55.9773 18.7598 55.646 20.5819 52.607C20.5819 52.607 20.9542 51.8538 20.686 51.4277H18.7777C17.0129 52.1436 14.602 54.1504 13.3606 55.7705ZM14.6614 51.4277H13.9127C13.0457 51.7383 12.3003 52.2637 11.6912 53.0818C11.0322 53.9709 10.9692 54.4752 11.1801 54.8197C11.8626 53.9235 13.0481 52.5621 14.6614 51.4277ZM28.752 57.7104C45.2264 57.5109 48.734 62.4435 49.4979 64.9169V51.4277H22.8378C22.5851 53.6157 19.4654 56.499 16.3791 57.6155C14.4449 58.3152 13.1418 58.205 12.0834 57.8365C11.556 58.6591 11.2407 58.9213 10.8472 58.9789C10.2983 59.0632 9.88333 58.3027 9.79964 58.0558C9.72984 57.8535 9.51737 57.5137 9.91557 56.7123C8.91864 55.9018 8.93374 54.6787 9.23275 53.8338C9.38225 53.4086 9.89965 52.4396 10.2608 51.4277H3.66699V63.2856C14.3629 58.2074 28.752 57.7104 28.752 57.7104ZM10.3294 81.3268C10.1612 81.2453 8.08947 80.7004 9.09682 78.6904C10.042 76.8073 14.6965 73.5125 19.0424 71.4124C18.3684 68.3954 17.8218 65.382 18.1833 64.835C18.7753 63.9387 19.8437 64.1479 20.3036 64.527C20.7633 64.906 21.3122 66.0923 21.689 67.1642C21.7882 67.4471 22.1079 68.4813 22.5281 69.8792C25.3301 68.7404 27.0904 68.3062 30.3849 67.5315C34.7459 66.5053 37.9246 67.0612 38.5553 68.7704C39.0775 70.178 37.3091 71.6383 36.4536 72.0636C34.9396 72.818 34.2392 72.9794 33.9479 72.818C33.4882 72.563 33.6269 72.0851 34.6554 71.4404C35.8122 70.7159 35.2374 70.2607 35.2374 70.2607C34.4322 69.5188 28.7404 70.8781 23.3999 72.8063C24.2246 75.6065 25.128 78.7447 25.5988 80.5484C30.1616 79.6192 33.4659 78.2186 33.4659 78.2186C33.4659 78.2186 46.9414 72.9413 44.8318 66.6776C42.723 60.4152 29.7119 59.5574 18.6059 61.4932C12.195 62.6098 6.70219 64.3388 3.66699 65.6727V82.3756H13.6425C11.5628 81.8956 10.4147 81.3678 10.3294 81.3268ZM19.7097 74.2588C14.6841 76.376 12.0503 78.0231 10.88 78.9479C9.61228 79.9521 11.271 80.4171 11.271 80.4171C14.5769 81.42 18.139 81.5064 21.4247 81.1841C21.0746 79.9225 20.6274 77.9088 20.275 76.5279C20.1143 75.8975 19.9178 75.1142 19.7097 74.2588Z" fill="white"/>
</g>
<rect y="11" width="197" height="74" fill="#F2F7F5" style="mix-blend-mode:color"/>
<defs>
<clipPath id="clip0_4592_45085">
<rect width="53" height="76" fill="white" transform="translate(0 10)"/>
</clipPath>
</defs>
</svg>
