<svg width="197" height="96" viewBox="0 0 197 96" fill="none" xmlns="http://www.w3.org/2000/svg">
<rect width="196" height="96" fill="white"/>
<g clip-path="url(#clip0_4592_45129)">
<path d="M16.4168 62.9912V59.7089H9.06206L15.8954 51.0015V47.7192H5.38467V51.0015H11.4359L4.60254 59.7089V62.9912H16.4168Z" fill="#727272"/>
<path d="M33.7589 55.5717C33.7589 50.8247 30.3696 47.3525 25.7455 47.3525C21.1762 47.3525 17.5674 50.906 17.5674 55.409C17.5674 59.8712 21.231 63.3433 25.965 63.3433C29.1072 63.3433 32.3181 61.6073 33.3609 58.4606H29.2993C28.3526 59.5593 27.4195 59.9797 25.8827 59.9797C23.6735 59.9797 22.0406 58.8268 21.6015 56.9687H33.6217C33.7314 56.4533 33.7589 56.1142 33.7589 55.5717ZM30.0815 53.7543H21.478C22.0681 51.8012 23.5774 50.7162 25.7866 50.7162C28.1056 50.7162 29.6149 51.7876 30.0815 53.7543Z" fill="#727272"/>
<path d="M39.575 62.9935V47.708H35.8564V62.98H39.575V62.9935Z" fill="#727272"/>
<path d="M49.4667 51.0446V47.7081H47.2301V42.6084H43.5115V47.7081H41.6865V51.0446H43.5115V62.98H47.2301V51.0446H49.4667Z" fill="#727272"/>
<path d="M66.265 47.7075H62.0662L58.5397 57.8255L54.9584 47.7075H50.8145L57.0578 62.9795H60.0216L66.265 47.7075Z" fill="#727272"/>
<path d="M72.0945 62.993V47.7075H68.376V62.9795H72.0945V62.993Z" fill="#727272"/>
<path d="M90.3702 55.5717C90.3702 50.8247 86.981 47.3525 82.3568 47.3525C77.7875 47.3525 74.1787 50.906 74.1787 55.409C74.1787 59.8712 77.8424 63.3433 82.5763 63.3433C85.7186 63.3433 88.9294 61.6073 89.9723 58.4606H85.9107C84.9639 59.5593 84.0308 59.9797 82.494 59.9797C80.2848 59.9797 78.652 58.8268 78.2129 56.9687H90.233C90.3428 56.4533 90.3702 56.1142 90.3702 55.5717ZM86.7065 53.7543H78.1031C78.6931 51.8012 80.2025 50.7162 82.4117 50.7162C84.7169 50.7162 86.2263 51.7876 86.7065 53.7543Z" fill="#727272"/>
<path d="M112.844 47.7075H108.865L106.038 57.0253L103.486 47.7075H100.522L97.9152 57.0253L95.1434 47.7075H91.1367L96.6802 62.9795H98.9718L101.963 53.0785L104.899 62.9795H107.218L112.844 47.7075Z" fill="#727272"/>
</g>
<path fill-rule="evenodd" clip-rule="evenodd" d="M53.9996 28.4938C50.1721 28.4938 46.5014 29.9808 43.795 32.6278C41.0886 35.2748 39.5681 38.8649 39.5681 42.6083H35.8496C35.8496 37.9004 37.7618 33.3852 41.1656 30.0562C44.5694 26.7272 49.1859 24.8569 53.9996 24.8569C58.8133 24.8569 63.4298 26.7272 66.8336 30.0562C70.2374 33.3852 72.1496 37.9004 72.1496 42.6083H68.4311C68.4311 38.8649 66.9107 35.2748 64.2042 32.6278C61.4978 29.9808 57.8271 28.4938 53.9996 28.4938Z" fill="#727272"/>
<rect y="11" width="197" height="74" fill="#F2F7F5" style="mix-blend-mode:color"/>
<defs>
<clipPath id="clip0_4592_45129">
<rect width="109.544" height="39.0237" fill="white" transform="translate(3.57812 24.5615)"/>
</clipPath>
</defs>
</svg>
