<svg width="25" height="25" viewBox="0 0 25 25" fill="none" xmlns="http://www.w3.org/2000/svg">
<path d="M12.3281 2.02319C8.46213 2.02319 5.32812 5.15719 5.32812 9.02319C5.32812 10.9822 5.87312 12.1492 7.07812 13.5542C7.13413 13.6202 7.34114 13.8712 7.39014 13.9292C8.10114 14.7582 8.32812 15.2102 8.32812 16.0232V18.0232C8.32812 20.2322 10.1191 22.0232 12.3281 22.0232C14.5371 22.0232 16.3281 20.2322 16.3281 18.0232V16.0232C16.3281 15.2102 16.5551 14.7582 17.2661 13.9292C17.3151 13.8712 17.5221 13.6202 17.5781 13.5542C18.7831 12.1492 19.3281 10.9822 19.3281 9.02319C19.3281 5.15719 16.1941 2.02319 12.3281 2.02319ZM12.3281 4.02319C15.0891 4.02319 17.3281 6.26219 17.3281 9.02319C17.3281 10.4392 16.9981 11.1682 16.0781 12.2422C16.0261 12.3022 15.7881 12.5542 15.7341 12.6172C15.0211 13.4492 14.6061 14.1972 14.4251 15.0292C13.1571 15.0292 11.4961 15.0342 10.2281 15.0342C10.0471 14.2012 9.63512 13.4492 8.92212 12.6172C8.86812 12.5542 8.63013 12.3022 8.57812 12.2422C7.65812 11.1682 7.32812 10.4392 7.32812 9.02319C7.32812 6.26219 9.56713 4.02319 12.3281 4.02319ZM12.3281 6.02319C10.6711 6.02319 9.32812 7.36619 9.32812 9.02319C9.32812 9.57519 9.77613 10.0232 10.3281 10.0232C10.8801 10.0232 11.3281 9.57519 11.3281 9.02319C11.3281 8.47119 11.7761 8.02319 12.3281 8.02319C12.8801 8.02319 13.3281 7.57519 13.3281 7.02319C13.3281 6.47119 12.8801 6.02319 12.3281 6.02319ZM10.3281 17.0232C11.5641 17.0232 13.0921 17.0232 14.3281 17.0232V18.0232C14.3281 19.1282 13.4331 20.0232 12.3281 20.0232C11.2231 20.0232 10.3281 19.1282 10.3281 18.0232V17.0232Z" fill="#6952F9"/>
</svg>
