<svg width="25" height="24" viewBox="0 0 25 24" fill="none" xmlns="http://www.w3.org/2000/svg">
<path d="M6.3318 4.88281C6.0758 4.88281 5.80881 4.96882 5.61281 5.16382L4.3318 6.4458L4.0508 6.16382C3.6598 5.77382 3.00381 5.77382 2.61281 6.16382C2.22281 6.55482 2.22281 7.2108 2.61281 7.6018L3.61281 8.6018C4.00381 8.9918 4.6598 8.9918 5.0508 8.6018L7.0508 6.6018C7.4408 6.2108 7.4408 5.55482 7.0508 5.16382C6.8548 4.96882 6.5878 4.88281 6.3318 4.88281ZM10.3318 5.88281C9.7798 5.88281 9.3318 6.33081 9.3318 6.88281C9.3318 7.43481 9.7798 7.88281 10.3318 7.88281H21.3318C21.8838 7.88281 22.3318 7.43481 22.3318 6.88281C22.3318 6.33081 21.8838 5.88281 21.3318 5.88281H10.3318ZM6.3318 9.88281C6.0758 9.88281 5.80881 9.96881 5.61281 10.1638L4.3318 11.4458L4.0508 11.1638C3.6598 10.7738 3.00381 10.7738 2.61281 11.1638C2.22281 11.5548 2.22281 12.2108 2.61281 12.6018L3.61281 13.6018C4.00381 13.9918 4.6598 13.9918 5.0508 13.6018L7.0508 11.6018C7.4408 11.2108 7.4408 10.5548 7.0508 10.1638C6.8548 9.96881 6.5878 9.88281 6.3318 9.88281ZM10.3318 10.8828C9.7798 10.8828 9.3318 11.3308 9.3318 11.8828C9.3318 12.4348 9.7798 12.8828 10.3318 12.8828H21.3318C21.8838 12.8828 22.3318 12.4348 22.3318 11.8828C22.3318 11.3308 21.8838 10.8828 21.3318 10.8828H10.3318ZM6.3318 14.8828C6.0758 14.8828 5.80881 14.9688 5.61281 15.1638L4.3318 16.4458L4.0508 16.1638C3.6598 15.7738 3.00381 15.7738 2.61281 16.1638C2.22281 16.5548 2.22281 17.2108 2.61281 17.6018L3.61281 18.6018C4.00381 18.9918 4.6598 18.9918 5.0508 18.6018L7.0508 16.6018C7.4408 16.2108 7.4408 15.5548 7.0508 15.1638C6.8548 14.9688 6.5878 14.8828 6.3318 14.8828ZM10.3318 15.8828C9.7798 15.8828 9.3318 16.3308 9.3318 16.8828C9.3318 17.4348 9.7798 17.8828 10.3318 17.8828H21.3318C21.8838 17.8828 22.3318 17.4348 22.3318 16.8828C22.3318 16.3308 21.8838 15.8828 21.3318 15.8828H10.3318Z" fill="#6952F9"/>
</svg>
