<svg width="154" height="32" viewBox="0 0 154 32" fill="none" xmlns="http://www.w3.org/2000/svg">
<g clip-path="url(#clip0_4359_36594)">
<path d="M52.024 18.0801C52.8256 18.2401 53.547 18.6401 54.1883 19.4401C54.7494 20.1601 55.07 21.0401 55.07 21.9201C55.07 22.7201 54.8296 23.4401 54.4288 24.0801C54.028 24.7201 53.4669 25.2001 52.6653 25.6001C51.8637 25.9201 50.9819 26.1601 49.9399 26.1601H43.6875V10.5601H49.6994C50.7415 10.5601 51.7034 10.7201 52.4248 11.1201C53.2264 11.4401 53.7875 12.0001 54.1883 12.5601C54.5891 13.1201 54.7494 13.8401 54.7494 14.5601C54.7494 15.4401 54.5089 16.2401 54.028 16.8001C53.547 17.3601 52.9058 17.8401 52.024 18.0801ZM46.2526 17.0401H49.3788C50.1804 17.0401 50.9018 16.8801 51.3026 16.4801C51.7835 16.0801 52.024 15.5201 52.024 14.8001C52.024 14.0801 51.7835 13.5201 51.3026 13.2001C50.8216 12.8001 50.1804 12.5601 49.3788 12.5601H46.2526V17.0401ZM49.6994 24.0001C50.5812 24.0001 51.2224 23.7601 51.7034 23.3601C52.1843 22.9601 52.4248 22.3201 52.4248 21.6001C52.4248 20.8001 52.1843 20.2401 51.6232 19.7601C51.0621 19.2801 50.4208 19.1201 49.5391 19.1201H46.1724V24.0001H49.6994Z" fill="white"/>
<path d="M60.1979 10.5142V26.0799H57.6328V10.5142H60.1979Z" fill="white"/>
<path d="M74.5466 13.7602V26.0802H71.9815V24.6402C71.5807 25.1202 71.0196 25.5202 70.3784 25.8402C69.7371 26.1602 69.0156 26.2402 68.2942 26.2402C67.3323 26.2402 66.4506 26.0002 65.649 25.6002C64.8474 25.2002 64.2863 24.5602 63.8053 23.8402C63.4045 23.0402 63.1641 22.0802 63.1641 20.9602V13.6802H65.7291V20.5602C65.7291 21.6802 65.9696 22.4802 66.5307 23.1202C67.0918 23.6802 67.8133 24.0002 68.7752 24.0002C69.7371 24.0002 70.4585 23.6802 71.0196 23.1202C71.5807 22.5602 71.9014 21.6802 71.9014 20.5602V13.6802H74.5466V13.7602Z" fill="white"/>
<path d="M88.9732 19.5999C88.9732 20.0799 88.9732 20.4799 88.893 20.8799H79.4343C79.5145 21.8399 79.9153 22.6399 80.5565 23.2799C81.1978 23.8399 81.9994 24.1599 82.9613 24.1599C84.324 24.1599 85.2859 23.5999 85.847 22.3999H88.5724C88.1716 23.5199 87.5303 24.4799 86.5684 25.1999C85.6065 25.9199 84.4041 26.2399 82.9613 26.2399C81.7589 26.2399 80.7168 25.9999 79.7549 25.4399C78.793 24.8799 78.0716 24.1599 77.5907 23.1999C77.0295 22.2399 76.7891 21.1199 76.7891 19.8399C76.7891 18.5599 77.0295 17.4399 77.5907 16.4799C78.1518 15.5199 78.8732 14.7999 79.7549 14.2399C80.7168 13.6799 81.7589 13.4399 82.9613 13.4399C84.1637 13.4399 85.2057 13.6799 86.0875 14.2399C86.9692 14.7199 87.6906 15.4399 88.2518 16.3999C88.7327 17.3599 88.9732 18.3999 88.9732 19.5999ZM86.3279 18.7999C86.3279 17.8399 86.0073 17.1199 85.2859 16.5599C84.6446 15.9999 83.843 15.6799 82.801 15.6799C81.9192 15.6799 81.1978 15.9999 80.5565 16.5599C79.9153 17.1199 79.5145 17.8399 79.4343 18.7999H86.3279Z" fill="white"/>
<path d="M100.682 22.9601H94.1893L93.0671 26.1601H90.4219L96.033 10.5601H98.9989L104.61 26.1601H101.804L100.682 22.9601ZM99.9608 20.8001L97.3957 13.6001L94.8306 20.8001H99.9608Z" fill="white"/>
<path d="M109.258 15.6001C109.659 15.0401 110.3 14.5601 111.022 14.1601C111.743 13.7601 112.625 13.6001 113.587 13.6001C114.629 13.6001 115.671 13.8401 116.553 14.4001C117.435 14.9601 118.156 15.6801 118.637 16.6401C119.118 17.6001 119.439 18.7201 119.439 19.9201C119.439 21.1201 119.198 22.2401 118.637 23.2801C118.156 24.2401 117.435 25.0401 116.553 25.6001C115.671 26.1601 114.709 26.4001 113.587 26.4001C112.625 26.4001 111.823 26.2401 111.102 25.8401C110.381 25.4401 109.739 24.9601 109.339 24.4001V32.0001H106.773V13.7601H109.339V15.6001H109.258ZM116.793 19.8401C116.793 18.9601 116.633 18.2401 116.232 17.6801C115.912 17.0401 115.431 16.5601 114.869 16.2401C114.308 15.9201 113.667 15.7601 113.026 15.7601C112.385 15.7601 111.743 15.9201 111.182 16.2401C110.621 16.5601 110.14 17.0401 109.819 17.6801C109.499 18.3201 109.339 19.0401 109.339 19.9201C109.339 20.8001 109.499 21.5201 109.819 22.1601C110.14 22.8001 110.621 23.2801 111.182 23.6001C111.743 23.9201 112.385 24.0801 113.026 24.0801C113.667 24.0801 114.308 23.9201 114.869 23.6001C115.431 23.2801 115.912 22.8001 116.232 22.1601C116.633 21.4401 116.793 20.7201 116.793 19.8401Z" fill="white"/>
<path d="M124.243 15.6001C124.644 15.0401 125.285 14.5601 126.006 14.1601C126.728 13.7601 127.609 13.6001 128.571 13.6001C129.613 13.6001 130.655 13.8401 131.537 14.4001C132.419 14.9601 133.14 15.6801 133.621 16.6401C134.102 17.6001 134.423 18.7201 134.423 19.9201C134.423 21.1201 134.182 22.2401 133.621 23.2801C133.14 24.2401 132.419 25.0401 131.537 25.6001C130.655 26.1601 129.694 26.4001 128.571 26.4001C127.609 26.4001 126.808 26.2401 126.086 25.8401C125.365 25.4401 124.724 24.9601 124.323 24.4001V32.0001H121.758V13.7601H124.323V15.6001H124.243ZM131.778 19.8401C131.778 18.9601 131.617 18.2401 131.217 17.6801C130.896 17.0401 130.415 16.5601 129.854 16.2401C129.293 15.9201 128.651 15.7601 128.01 15.7601C127.369 15.7601 126.728 15.9201 126.167 16.2401C125.605 16.5601 125.124 17.0401 124.804 17.6801C124.483 18.3201 124.323 19.0401 124.323 19.9201C124.323 20.8001 124.483 21.5201 124.804 22.1601C125.124 22.8001 125.605 23.2801 126.167 23.6001C126.728 23.9201 127.369 24.0801 128.01 24.0801C128.651 24.0801 129.293 23.9201 129.854 23.6001C130.415 23.2801 130.896 22.8001 131.217 22.1601C131.617 21.4401 131.778 20.7201 131.778 19.8401Z" fill="white"/>
<path d="M139.237 10.5142V26.08H136.672V10.5142H139.237Z" fill="white"/>
<path d="M153.747 19.5999C153.747 20.0799 153.747 20.4799 153.666 20.8799H144.208C144.288 21.8399 144.689 22.6399 145.33 23.2799C145.971 23.8399 146.773 24.1599 147.735 24.1599C149.097 24.1599 150.059 23.5999 150.62 22.3999H153.346C152.945 23.5199 152.304 24.4799 151.342 25.1999C150.38 25.9199 149.178 26.2399 147.735 26.2399C146.532 26.2399 145.49 25.9999 144.528 25.4399C143.566 24.8799 142.845 24.1599 142.364 23.1999C141.803 22.2399 141.562 21.1199 141.562 19.8399C141.562 18.5599 141.803 17.4399 142.364 16.4799C142.925 15.5199 143.647 14.7999 144.528 14.2399C145.49 13.6799 146.532 13.4399 147.735 13.4399C148.937 13.4399 149.979 13.6799 150.861 14.2399C151.743 14.7199 152.464 15.4399 153.025 16.3999C153.506 17.3599 153.747 18.3999 153.747 19.5999ZM151.021 18.7999C151.021 17.8399 150.701 17.1199 149.979 16.5599C149.338 15.9999 148.536 15.6799 147.494 15.6799C146.612 15.6799 145.891 15.9999 145.25 16.5599C144.609 17.1199 144.208 17.8399 144.128 18.7999H151.021Z" fill="white"/>
<path fill-rule="evenodd" clip-rule="evenodd" d="M29.3375 12.56C25.57 6.24001 17.3136 4.16001 10.9009 7.84001C10.42 8.08001 10.0192 8.40001 9.6184 8.72001C9.6184 8.32001 9.6184 7.84001 9.6184 7.44001C9.45809 5.60001 8.89697 3.76001 7.61443 2.32001C6.33189 0.880006 4.32793 0.0800064 1.52237 0.320006L0.640625 0.400006L0.800942 1.20001C0.96126 2.24001 1.28189 4.08001 2.40412 5.60001C3.44618 7.12001 5.20967 8.24001 8.01523 8.24001C8.01523 8.72001 8.01523 9.20001 7.93507 9.68001C7.93507 9.84001 7.93507 9.92001 7.85491 10.08C5.69063 12.16 4.08745 14.8 3.28586 17.76C2.2438 22 2.88507 26.4 5.04936 30.16C5.28983 30.56 5.77078 30.8 6.17158 30.8C6.41205 30.8 6.65253 30.72 6.81285 30.64C7.13348 30.48 7.37396 30.16 7.45412 29.84C7.53428 29.52 7.45412 29.12 7.2938 28.8C5.45015 25.68 4.88904 22 5.85094 18.48C6.81285 14.96 9.05729 12 12.1835 10.16C17.3938 7.20001 24.047 8.88 27.0128 13.92C28.1351 15.84 28.4557 18 27.8946 20.16C27.3335 22.32 25.9708 24.08 24.047 25.2C22.6041 26.08 20.8406 26.32 19.1573 25.84C17.474 25.44 16.1113 24.4 15.2295 22.96C14.5882 21.84 14.4279 20.56 14.7486 19.36C15.0692 18.08 15.8708 17.04 16.993 16.4C17.7946 15.92 18.8367 15.76 19.7184 16C20.6803 16.24 21.4017 16.8 21.9628 17.68C22.3636 18.32 23.1652 18.56 23.8065 18.16C24.1271 18 24.3676 17.68 24.4478 17.36C24.5279 17.04 24.4478 16.64 24.2875 16.32C23.4057 14.88 22.043 13.84 20.4398 13.44C18.8367 13.04 17.1533 13.28 15.6303 14.08C13.8668 15.12 12.6644 16.72 12.1835 18.64C11.7025 20.56 11.943 22.56 12.9851 24.32C14.1875 26.4 16.1914 27.84 18.516 28.48C20.8406 29.12 23.3255 28.72 25.4097 27.52C27.9748 26.08 29.7382 23.68 30.4597 20.8C31.2613 18 30.8605 15.04 29.3375 12.56Z" fill="white"/>
</g>
<defs>
<clipPath id="clip0_4359_36594">
<rect width="153.905" height="32" fill="white"/>
</clipPath>
</defs>
</svg>
