<svg width="350" height="352" viewBox="0 0 350 352" fill="none" xmlns="http://www.w3.org/2000/svg">
<path opacity="0.2" fill-rule="evenodd" clip-rule="evenodd" d="M332.328 142.048C288.698 68.9547 193.084 44.8988 118.821 87.4593C113.251 90.235 108.61 93.9359 103.968 97.6368C103.968 93.0107 103.968 87.4593 103.968 82.8331C102.112 61.5529 95.6138 40.2726 80.7612 23.6185C65.9085 6.96436 42.7013 -2.28793 10.2112 0.487762L0 1.41299L1.85658 10.6653C3.71316 22.6933 7.42631 43.9735 20.4224 61.5529C32.4901 79.1322 52.9125 92.0854 85.4026 92.0854C85.4026 97.6368 85.4026 103.188 84.4743 108.74C84.4743 110.59 84.4743 111.515 83.546 113.366C58.4822 137.422 39.9164 167.954 30.6335 202.188C18.5658 251.225 25.9921 302.112 51.0559 345.598C53.8408 350.224 59.4105 353 64.052 353C66.8368 353 69.6217 352.075 71.4783 351.15C75.1914 349.299 77.9763 345.598 78.9046 341.897C79.8329 338.196 78.9046 333.57 77.048 329.869C55.6974 293.785 49.1993 251.225 60.3388 210.515C71.4783 169.805 97.4704 135.571 133.674 114.291C194.012 80.0574 271.06 99.4873 305.407 157.777C318.403 179.982 322.116 204.963 315.618 229.945C309.12 254.926 293.339 275.281 271.06 288.234C254.351 298.411 233.929 301.187 214.435 295.636C194.941 291.01 179.16 278.982 168.949 262.328C161.522 249.374 159.666 234.571 163.379 220.692C167.092 205.889 176.375 193.861 189.371 186.459C198.654 180.907 210.722 179.057 220.933 181.833C232.072 184.608 240.427 191.085 246.925 201.262C251.566 208.664 260.849 211.44 268.276 206.814C271.989 204.963 274.774 201.262 275.702 197.562C276.63 193.861 275.702 189.234 273.845 185.534C263.634 168.879 247.853 156.851 229.287 152.225C210.722 147.599 191.228 150.375 173.59 159.627C153.168 171.655 139.243 190.16 133.674 212.365C128.104 234.571 130.889 257.701 142.957 278.056C156.881 302.112 180.088 318.767 207.009 326.168C233.929 333.57 262.706 328.944 286.841 315.066C316.547 298.412 336.969 270.655 345.324 237.346C354.606 204.963 349.965 170.73 332.328 142.048Z" fill="url(#paint0_linear_4479_37416)"/>
<defs>
<linearGradient id="paint0_linear_4479_37416" x1="79.5512" y1="384.24" x2="418.277" y2="9.04878" gradientUnits="userSpaceOnUse">
<stop stop-color="#FAFAFA"/>
<stop offset="1" stop-color="#BD9DFF"/>
</linearGradient>
</defs>
</svg>
