<svg width="31" height="31" viewBox="0 0 31 31" fill="none" xmlns="http://www.w3.org/2000/svg">
<path fill-rule="evenodd" clip-rule="evenodd" d="M28.6968 12.2822C24.9294 5.96217 16.673 3.88217 10.2603 7.56217C9.77937 7.80217 9.37857 8.12217 8.97778 8.44217C8.97778 8.04217 8.97778 7.56217 8.97778 7.16217C8.81746 5.32217 8.25635 3.48217 6.97381 2.04217C5.69127 0.602174 3.6873 -0.197826 0.881746 0.0421743L0 0.122174L0.160317 0.922174C0.320635 1.96217 0.64127 3.80217 1.76349 5.32217C2.80556 6.84217 4.56905 7.96217 7.3746 7.96217C7.3746 8.44217 7.3746 8.92217 7.29444 9.40217C7.29444 9.56217 7.29444 9.64217 7.21429 9.80217C5.05 11.8822 3.44683 14.5222 2.64524 17.4822C1.60317 21.7222 2.24444 26.1222 4.40873 29.8822C4.64921 30.2822 5.13016 30.5222 5.53095 30.5222C5.77143 30.5222 6.0119 30.4422 6.17222 30.3622C6.49286 30.2022 6.73333 29.8822 6.81349 29.5622C6.89365 29.2422 6.81349 28.8422 6.65318 28.5222C4.80952 25.4022 4.24841 21.7222 5.21032 18.2022C6.17222 14.6822 8.41667 11.7222 11.5429 9.88217C16.7532 6.92217 23.4064 8.60217 26.3722 13.6422C27.4944 15.5622 27.8151 17.7222 27.254 19.8822C26.6929 22.0422 25.3302 23.8022 23.4064 24.9222C21.9635 25.8022 20.2 26.0422 18.5167 25.5622C16.8333 25.1622 15.4706 24.1222 14.5889 22.6822C13.9476 21.5622 13.7873 20.2822 14.1079 19.0822C14.4286 17.8022 15.2302 16.7622 16.3524 16.1222C17.154 15.6422 18.196 15.4822 19.0778 15.7222C20.0397 15.9622 20.7611 16.5222 21.3222 17.4022C21.723 18.0422 22.5246 18.2822 23.1659 17.8822C23.4865 17.7222 23.727 17.4022 23.8071 17.0822C23.8873 16.7622 23.8071 16.3622 23.6468 16.0422C22.7651 14.6022 21.4024 13.5622 19.7992 13.1622C18.196 12.7622 16.5127 13.0022 14.9897 13.8022C13.2262 14.8422 12.0238 16.4422 11.5429 18.3622C11.0619 20.2822 11.3024 22.2822 12.3444 24.0422C13.5468 26.1222 15.5508 27.5622 17.8754 28.2022C20.2 28.8422 22.6849 28.4422 24.7691 27.2422C27.3341 25.8022 29.0976 23.4022 29.819 20.5222C30.6206 17.7222 30.2198 14.7622 28.6968 12.2822Z" fill="url(#paint0_linear_4359_36305)"/>
<defs>
<linearGradient id="paint0_linear_4359_36305" x1="0.829347" y1="30.5222" x2="28.5642" y2="30.5222" gradientUnits="userSpaceOnUse">
<stop offset="1" stop-color="#BD9DFF"/>
</linearGradient>
</defs>
</svg>
