<svg width="25" height="25" viewBox="0 0 25 25" fill="none" xmlns="http://www.w3.org/2000/svg">
<path d="M19.3359 4.68995C17.8489 4.69295 16.8519 5.79496 16.7419 5.87696C16.1529 6.31996 15.5129 6.72695 14.8359 7.06495C13.4139 7.77595 11.8719 8.21495 10.3359 8.47095C9.79794 8.56095 9.31194 8.62694 8.86694 8.65894C8.60694 8.67694 8.42094 8.68995 8.33594 8.68995H6.27393C4.06893 8.68995 2.33594 10.4759 2.33594 12.6899C2.33594 14.8989 4.12694 16.6899 6.33594 16.6899V17.6899C6.33594 19.3469 7.67894 20.6899 9.33594 20.6899C10.9929 20.6899 12.3359 19.3469 12.3359 17.6899L12.3419 17.3489C13.1839 17.5909 14.0459 17.9189 14.8359 18.3149C15.5089 18.6519 16.1559 19.063 16.7419 19.502C16.8519 19.585 17.9659 20.6989 19.3359 20.6899C20.9779 20.6789 22.3359 19.4139 22.3359 17.8149V7.56495C22.3359 5.96595 20.9979 4.68695 19.3359 4.68995ZM19.3359 6.68995C19.9029 6.68995 20.3359 7.10195 20.3359 7.56495V17.8149C20.3359 18.2779 19.9029 18.6899 19.3359 18.6899C18.7689 18.6899 18.3359 18.2779 18.3359 17.8149C18.3359 15.2869 18.3359 10.0929 18.3359 7.56495C18.3359 7.10195 18.7689 6.68995 19.3359 6.68995ZM16.3359 8.51096C16.3359 11.026 16.3269 14.3289 16.3269 16.8439C16.1209 16.7289 15.9549 16.6399 15.7419 16.5339C14.1249 15.7229 12.3999 15.1959 10.6799 14.9089C9.64393 14.7359 8.82194 14.6899 8.33594 14.6899V10.6899C8.82194 10.6899 9.64493 10.644 10.6799 10.471C12.3989 10.185 14.1259 9.65395 15.7419 8.84595C15.9559 8.73895 16.1289 8.62696 16.3359 8.51096ZM6.27393 10.6899H6.33594V14.6899C5.23094 14.6899 4.33594 13.7949 4.33594 12.6899C4.33594 11.5689 5.18493 10.6899 6.27393 10.6899ZM8.33594 16.6899C8.42094 16.6899 8.60694 16.703 8.86694 16.721C9.31194 16.753 9.79794 16.8189 10.3359 16.9089V17.6899C10.3359 18.2419 9.88794 18.6899 9.33594 18.6899C8.78394 18.6899 8.33594 18.2419 8.33594 17.6899V16.6899Z" fill="#6952F9"/>
</svg>
