<svg width="24" height="25" viewBox="0 0 24 25" fill="none" xmlns="http://www.w3.org/2000/svg">
<path d="M7.47868 3.34869L8.59365 3.01261C9.8572 2.63175 11.2072 3.24726 11.7483 4.45092L12.6098 6.36723C13.071 7.39318 12.8279 8.59893 12.0053 9.36608L10.5776 10.6974C10.5359 10.7363 10.5094 10.7889 10.5031 10.8456C10.4607 11.225 10.718 11.9639 11.3106 12.9904C11.7415 13.7368 12.1316 14.2602 12.4636 14.5546C12.6949 14.7598 12.8222 14.8041 12.8764 14.788L14.7971 14.2008C15.8725 13.872 17.0379 14.2641 17.6959 15.176L18.9196 16.8719C19.6898 17.9393 19.5513 19.4118 18.5956 20.3169L17.7487 21.1189C16.8349 21.9843 15.5341 22.3068 14.3219 21.9684C11.6906 21.234 9.33137 19.0135 7.2181 15.3532C5.1019 11.6878 4.35936 8.53067 5.04387 5.88245C5.35712 4.67052 6.28018 3.70995 7.47868 3.34869ZM7.89228 4.72084C7.17318 4.9376 6.61935 5.51394 6.4314 6.2411C5.85561 8.46867 6.51376 11.267 8.45923 14.6366C10.4021 18.0018 12.4935 19.9701 14.7072 20.588C15.4345 20.7911 16.215 20.5976 16.7633 20.0783L17.6101 19.2764C18.0445 18.865 18.1075 18.1956 17.7574 17.7104L16.5338 16.0146C16.2347 15.6 15.7049 15.4218 15.2161 15.5713L13.2906 16.1599C12.1731 16.4931 11.1587 15.5936 10.0694 13.7069C9.33539 12.4355 8.99326 11.4527 9.07884 10.6865C9.12317 10.2896 9.30811 9.92166 9.6002 9.64929L11.0279 8.31795C11.4018 7.96925 11.5123 7.42118 11.3027 6.95484L10.4412 5.03854C10.1952 4.49142 9.58159 4.21164 9.00725 4.38476L7.89228 4.72084Z" fill="white"/>
</svg>
