<svg width="171" height="28" viewBox="0 0 171 28" fill="none" xmlns="http://www.w3.org/2000/svg">
<g clip-path="url(#clip0_4359_36472)">
<path d="M111.336 9.63574H113.34L116.188 18.2621H116.241L119.089 9.63574H120.776L123.677 18.2621H123.73L126.578 9.63574H128.476L124.521 20.9123H122.78L119.932 12.286H119.88L117.085 20.9123H115.344L111.336 9.63574Z" fill="#16132B"/>
<path d="M24.8438 20.9668L31.278 5.58496H32.9129L39.2944 20.9668H37.1848L35.3389 16.4458H28.7992L26.9533 20.9668H24.8438ZM32.0691 7.81949L29.1684 14.9388H34.8642L32.0691 7.81949Z" fill="#16132B"/>
<path d="M40.4006 24.0822C40.8225 24.1342 41.1389 24.1342 41.4554 24.1342C41.6136 24.1342 41.7191 24.0822 41.8245 24.0303C41.93 23.9783 42.0882 23.8224 42.2464 23.6145C42.4047 23.4067 42.5629 23.0949 42.7738 22.6792C42.9848 22.2634 43.1958 21.6918 43.4595 20.9643L38.5547 9.63574H40.5588L44.4615 19.2494L48.0478 9.63574H49.8937L44.2505 23.9263C43.9869 24.6019 43.6177 25.0696 43.0903 25.3814C42.6156 25.6932 41.9828 25.8491 41.3499 25.8491C41.1917 25.8491 41.0334 25.8491 40.8752 25.8491C40.717 25.8491 40.5588 25.7971 40.4006 25.7451V24.0822V24.0822Z" fill="#16132B"/>
<path d="M51.4766 5.16699H53.4279V18.0545C53.4279 18.4702 53.5334 18.782 53.7444 19.0419C53.9553 19.3017 54.2718 19.4056 54.6937 19.4056C54.8519 19.4056 55.0629 19.4056 55.2738 19.3537C55.4848 19.3017 55.6957 19.2497 55.9067 19.1458L56.2231 20.7048C55.9067 20.8607 55.5375 20.9646 55.0629 21.0166C54.6409 21.1205 54.219 21.1725 53.9026 21.1725C53.1642 21.1725 52.5841 20.9646 52.1094 20.5489C51.6875 20.1331 51.4766 19.5615 51.4766 18.782V5.16699Z" fill="#16132B"/>
<path d="M61.0707 21.173C60.4906 21.173 59.9632 21.0691 59.4885 20.9132C59.0139 20.7573 58.5919 20.4974 58.2228 20.1856C57.8536 19.8738 57.5899 19.5101 57.3789 19.0944C57.168 18.6786 57.0625 18.2109 57.0625 17.7432C57.0625 17.2236 57.168 16.7039 57.4317 16.2882C57.6426 15.8725 58.0118 15.4567 58.4337 15.145C58.8556 14.8332 59.383 14.5733 59.9632 14.4174C60.5433 14.2615 61.2289 14.1576 61.9145 14.1576C62.4947 14.1576 63.0221 14.2096 63.6022 14.3135C64.1823 14.4174 64.657 14.5733 65.1316 14.7292V13.7938C65.1316 12.8585 64.868 12.1309 64.3406 11.6113C63.8132 11.0916 63.0748 10.8318 62.0728 10.8318C60.9125 10.8318 59.6995 11.2475 58.4337 12.1309L57.8009 10.8838C58.5392 10.4161 59.2776 10.0003 60.0159 9.79247C60.7543 9.53264 61.4926 9.42871 62.2837 9.42871C63.7604 9.42871 64.9207 9.84444 65.7645 10.6239C66.6084 11.4034 67.0303 12.5467 67.0303 14.0017V18.6267C67.0303 19.0944 67.2412 19.3022 67.6631 19.3022V20.9651C67.5049 21.0171 67.3994 21.0171 67.2412 21.0171C67.1358 21.0171 66.9775 21.0171 66.8721 21.0171C66.5556 21.0171 66.2392 20.9132 65.9227 20.7573C65.6063 20.6014 65.4481 20.2896 65.3953 19.8738L65.3426 19.0944C65.0789 19.4581 64.7625 19.7179 64.446 19.9778C64.1296 20.2376 63.7604 20.4455 63.3912 20.6533C63.0221 20.8092 62.6002 20.9651 62.231 21.0171C61.8618 21.121 61.4926 21.173 61.0707 21.173ZM61.5981 19.7699C62.231 19.7699 62.8111 19.666 63.3912 19.3542C63.9714 19.0944 64.446 18.7826 64.7625 18.4188C65.0262 18.107 65.1844 17.7952 65.1844 17.5354V15.8725C64.7097 15.7166 64.2351 15.5607 63.7604 15.4567C63.233 15.3528 62.7584 15.3008 62.2837 15.3008C61.2817 15.3008 60.4906 15.5087 59.9104 15.8725C59.3303 16.2882 59.0139 16.8079 59.0139 17.4834C59.0139 17.7952 59.0666 18.055 59.1721 18.3149C59.2776 18.5747 59.4358 18.8345 59.6995 19.0424C59.9104 19.2502 60.1741 19.4061 60.4906 19.5101C60.807 19.666 61.1762 19.7699 61.5981 19.7699Z" fill="#16132B"/>
<path d="M77.6857 9.21866V20.9629H75.7344V5.58105H77.2638L86.9151 17.5852V5.58105H88.9192V20.9629H87.2316L77.6857 9.21866Z" fill="#16132B"/>
<path d="M97.0416 21.1718C96.1977 21.1718 95.4067 21.0159 94.6683 20.7041C93.9299 20.3923 93.3498 19.9766 92.8224 19.4569C92.295 18.9373 91.9259 18.3137 91.6094 17.5862C91.3457 16.8586 91.1875 16.1311 91.1875 15.2997C91.1875 14.5202 91.3457 13.7407 91.6094 13.0651C91.8731 12.3376 92.295 11.714 92.8224 11.1944C93.3498 10.6747 93.9827 10.259 94.6683 9.94719C95.4067 9.63539 96.1977 9.47949 97.0416 9.47949C97.8854 9.47949 98.6765 9.63539 99.4149 9.94719C100.1 10.259 100.733 10.6747 101.208 11.1944C101.683 11.714 102.105 12.3376 102.368 13.0132C102.632 13.6887 102.79 14.4162 102.79 15.1957C102.79 15.3516 102.79 15.5075 102.79 15.6115C102.79 15.7674 102.79 15.8193 102.737 15.9233H93.1916C93.2443 16.4949 93.3498 17.0145 93.5608 17.4822C93.7717 17.9499 94.0882 18.3656 94.4046 18.6774C94.7738 18.9892 95.143 19.2491 95.6176 19.4569C96.0395 19.6648 96.5142 19.7168 97.0416 19.7168C97.4108 19.7168 97.7272 19.6648 98.0964 19.5609C98.4128 19.4569 98.7292 19.353 99.0457 19.1971C99.3621 19.0412 99.5731 18.8333 99.8368 18.6255C100.048 18.4176 100.259 18.1578 100.364 17.846L102.052 18.3137C101.841 18.7294 101.577 19.0932 101.261 19.4569C100.944 19.8207 100.522 20.0805 100.1 20.3403C99.6786 20.6002 99.2039 20.808 98.6765 20.912C98.1491 21.1198 97.6217 21.1718 97.0416 21.1718ZM100.944 14.5721C100.892 14.0525 100.786 13.5328 100.522 13.0651C100.311 12.5974 99.995 12.2337 99.6786 11.9219C99.3094 11.6101 98.9402 11.3503 98.4655 11.1944C97.9909 11.0385 97.5162 10.9345 96.9888 10.9345C96.4614 10.9345 95.9868 11.0385 95.5121 11.1944C95.0375 11.3503 94.6683 11.6101 94.2991 11.9739C93.9827 12.2856 93.6663 12.7014 93.4553 13.1171C93.2443 13.5848 93.1389 14.0525 93.0861 14.5721H100.944V14.5721Z" fill="#16132B"/>
<path d="M110.757 20.3932C110.651 20.4452 110.493 20.4971 110.282 20.6011C110.071 20.705 109.86 20.757 109.649 20.8609C109.385 20.9648 109.122 21.0168 108.858 21.0688C108.594 21.1207 108.278 21.1207 107.961 21.1207C107.276 21.1207 106.643 20.9129 106.115 20.5491C105.588 20.1853 105.324 19.5618 105.324 18.7823V11.1433H103.742V9.63628H105.324V5.84277H107.276V9.63628H109.86V11.1433H107.276V18.1587C107.328 18.5744 107.434 18.8862 107.698 19.0941C107.961 19.3019 108.225 19.3539 108.594 19.3539C108.963 19.3539 109.333 19.3019 109.649 19.146C109.965 19.0421 110.176 18.9382 110.282 18.8342L110.757 20.3932Z" fill="#16132B"/>
<path d="M134.333 21.173C133.489 21.173 132.698 21.0171 131.959 20.7053C131.274 20.3935 130.641 19.9778 130.113 19.4061C129.586 18.8865 129.217 18.2629 128.953 17.5354C128.689 16.8079 128.531 16.0803 128.531 15.3008C128.531 14.5214 128.689 13.7419 128.953 13.0663C129.217 12.3388 129.639 11.7152 130.166 11.1955C130.694 10.6759 131.274 10.2602 132.012 9.8964C132.698 9.58461 133.489 9.42871 134.333 9.42871C135.176 9.42871 135.968 9.58461 136.706 9.8964C137.444 10.2082 138.024 10.6239 138.552 11.1955C139.079 11.7152 139.448 12.3388 139.765 13.0663C140.028 13.7938 140.187 14.5214 140.187 15.3008C140.187 16.0803 140.028 16.8079 139.765 17.5354C139.501 18.2629 139.079 18.8865 138.552 19.4061C138.024 19.9258 137.444 20.3415 136.706 20.7053C135.968 21.0171 135.176 21.173 134.333 21.173ZM130.535 15.3528C130.535 15.9244 130.641 16.4961 130.852 17.0157C131.063 17.5354 131.326 17.9511 131.643 18.3149C132.012 18.6786 132.381 18.9904 132.856 19.1983C133.331 19.4061 133.805 19.5101 134.333 19.5101C134.86 19.5101 135.335 19.4061 135.809 19.1983C136.284 18.9904 136.653 18.6786 137.022 18.3149C137.391 17.9511 137.655 17.4834 137.866 16.9638C138.077 16.4441 138.183 15.9244 138.183 15.3008C138.183 14.7292 138.077 14.1576 137.866 13.6899C137.655 13.1702 137.391 12.7545 137.022 12.3388C136.653 11.975 136.284 11.6632 135.809 11.4554C135.335 11.2475 134.86 11.1436 134.333 11.1436C133.805 11.1436 133.331 11.2475 132.856 11.4554C132.381 11.6632 132.012 11.975 131.643 12.3908C131.274 12.7545 131.01 13.2222 130.852 13.7419C130.641 14.2096 130.535 14.7812 130.535 15.3528Z" fill="#16132B"/>
<path d="M148.094 11.3518C147.145 11.4038 146.248 11.6116 145.51 12.0793C144.772 12.547 144.244 13.1706 143.928 14.0021V20.9655H141.977V9.68889H143.77V12.2872C144.139 11.5077 144.666 10.8841 145.352 10.3644C145.985 9.84479 146.67 9.58496 147.409 9.58496H147.778C147.883 9.58496 147.989 9.58496 148.042 9.58496V11.3518H148.094Z" fill="#16132B"/>
<path d="M158.481 20.9646L154.526 15.4562L152.311 17.4829V20.9646H150.359V5.16699H152.311V15.5602L158.218 9.68802H160.327L155.739 14.3649L160.538 20.9646H158.481Z" fill="#16132B"/>
<path d="M166.133 21.1742C165.184 21.1742 164.287 21.0183 163.391 20.7584C162.494 20.4986 161.703 20.0829 161.07 19.5113L161.914 18.2121C162.6 18.7318 163.285 19.0955 163.918 19.3554C164.604 19.6152 165.289 19.7191 166.028 19.7191C166.872 19.7191 167.505 19.5632 168.032 19.2514C168.507 18.9396 168.77 18.4719 168.77 17.9003C168.77 17.6405 168.718 17.3807 168.559 17.1728C168.454 16.9649 168.243 16.809 167.979 16.6531C167.715 16.4972 167.399 16.3933 166.977 16.2374C166.555 16.1335 166.081 15.9776 165.553 15.8737C164.868 15.7178 164.287 15.5099 163.76 15.354C163.285 15.1981 162.863 14.9902 162.547 14.7824C162.231 14.5745 161.967 14.3147 161.861 14.0029C161.703 13.6911 161.65 13.3273 161.65 12.8596C161.65 12.288 161.756 11.8203 161.967 11.3526C162.178 10.9369 162.494 10.5212 162.916 10.2613C163.285 9.94955 163.76 9.74169 164.287 9.58579C164.815 9.4299 165.395 9.37793 166.028 9.37793C166.872 9.37793 167.715 9.53383 168.454 9.79366C169.192 10.0535 169.825 10.4172 170.352 10.8849L169.456 12.0282C168.981 11.6125 168.454 11.3007 167.821 11.0928C167.241 10.8849 166.608 10.781 165.975 10.781C165.289 10.781 164.657 10.9369 164.182 11.2487C163.707 11.5605 163.444 12.0282 163.444 12.6518C163.444 12.9116 163.496 13.1195 163.602 13.2754C163.707 13.4313 163.866 13.5872 164.076 13.7431C164.287 13.899 164.604 14.0029 164.92 14.1068C165.289 14.2108 165.659 14.3147 166.186 14.4186C166.924 14.5745 167.61 14.7824 168.19 14.9383C168.77 15.0942 169.245 15.354 169.614 15.5619C169.983 15.8217 170.247 16.0815 170.458 16.4453C170.616 16.7571 170.722 17.1728 170.722 17.6405C170.722 18.6798 170.3 19.5113 169.509 20.1349C168.612 20.8624 167.505 21.1742 166.133 21.1742Z" fill="#16132B"/>
<path d="M10.6562 3.34982V3.29785L10.709 3.34982H10.6562Z" fill="#16132B"/>
<path d="M16.2775 13.8962C15.9869 10.6869 14.1603 7.73732 13.368 5.33279C13.1497 4.67791 12.984 4.0776 12.8571 3.53975C12.7874 3.23861 12.7295 2.95786 12.6809 2.6988C12.4757 1.5876 12.4573 0.853814 12.4889 0.614479C12.5047 0.490866 12.3633 0.468513 12.2298 0.514539C12.0753 0.747956 10.7767 2.70603 10.7024 2.78296C10.7004 2.78493 10.6971 2.78822 10.6945 2.79151C10.7031 2.79677 10.707 2.80728 10.7057 2.82438C10.7044 2.83753 10.7011 2.85397 10.6932 2.87107C10.5176 3.31817 8.36491 7.71496 8.04996 11.1492C7.73435 14.584 8.15582 15.9832 7.79484 18.3851C7.43124 20.7863 5.49879 23.2763 5.47051 23.3138C5.03129 23.8786 3.18037 25.6795 1.94555 26.1418C1.94555 26.1418 1.92451 26.5231 2.27563 26.9196C2.62346 27.3174 3.69784 27.5146 3.69784 27.5146C3.69784 27.5146 7.06171 23.993 7.21425 23.7662C7.2399 23.7287 7.25568 23.7024 7.26225 23.6906C7.26225 23.6906 7.98487 23.4552 9.0198 22.9765C11.763 21.7062 16.7147 18.7276 16.2775 13.8962Z" fill="#16132B"/>
<path d="M12.2318 0.513708C12.2318 0.513708 12.1878 0.524887 12.1549 0.543955C10.6637 1.41779 4.43761 5.17416 2.14681 8.28946C-0.00130558 11.2101 -1.63721 17.2941 3.23763 21.7146C3.55259 21.9986 4.62105 22.9014 4.62105 22.9014C4.62105 22.9014 6.05313 21.9177 6.33521 19.2101C6.61531 16.4998 6.01039 14.2755 6.61268 10.8472C7.3754 6.50825 10.3125 3.1957 10.6854 2.8012C10.69 2.79659 10.6932 2.79331 10.6965 2.79002C10.6985 2.78739 10.7018 2.7841 10.7044 2.78213C10.7787 2.7052 12.2318 0.513708 12.2318 0.513708Z" fill="#16132B"/>
<path d="M17.1662 6.74931C17.0492 6.0701 16.9742 5.45072 16.9269 4.89907C16.7908 3.27962 16.9091 1.5543 16.9907 1.26697C17.0321 1.12297 16.8263 1.08878 16.6659 1.15322C16.2569 1.31628 14.694 2.36041 13.5847 2.85486C13.6169 2.99754 13.6472 3.14088 13.6814 3.28422C13.8116 3.83982 13.9753 4.41382 14.166 4.98915C14.4073 5.72293 14.7637 6.53956 15.1424 7.40288C15.9735 9.2998 16.9131 11.4505 17.1255 13.7906C17.1465 14.026 17.1524 14.2548 17.1524 14.481C17.1767 15.2503 17.063 15.9703 16.8427 16.6423C15.9584 19.5873 13.3539 21.6775 11.0375 23.0122C10.9836 23.0438 10.4188 23.5862 11.7713 22.9228C14.5756 21.5447 18.57 18.7844 18.787 15.0057C18.9718 11.7865 17.5976 9.24326 17.1662 6.74931Z" fill="#16132B"/>
</g>
<defs>
<clipPath id="clip0_4359_36472">
<rect width="170.876" height="27.0222" fill="white" transform="translate(0.0546875 0.489258)"/>
</clipPath>
</defs>
</svg>
