<svg width="91" height="42" viewBox="0 0 91 42" fill="none" xmlns="http://www.w3.org/2000/svg">
<g clip-path="url(#clip0_4359_36494)">
<path fill-rule="evenodd" clip-rule="evenodd" d="M33.5755 5.50921C31.2329 3.25298 28.37 1.67311 24.9699 0.760113C23.8151 0.450064 23.1171 0.376798 20.8718 0.330502C19.3834 0.299637 17.922 0.307276 17.6244 0.347181C15.6019 0.618727 12.6204 1.63632 10.7889 2.6798C4.32914 6.36033 0.32669 13.5853 0.659944 20.9641C0.904279 26.377 2.89283 30.9356 6.63455 34.6608C14.0707 42.0642 26.0904 42.1733 33.669 34.9064C34.8159 33.8065 34.9451 33.6245 34.9447 33.11C34.9443 32.6108 34.8382 32.4461 34.1157 31.824C32.8973 30.7747 32.5582 30.8224 31.0376 32.2567C29.0949 34.0891 26.8876 35.2894 23.9647 36.1023C22.8372 36.4159 22.3094 36.4666 20.2533 36.4588C17.7931 36.4494 16.6275 36.2392 14.3817 35.3997C13.0872 34.9159 10.8015 33.43 9.63801 32.3159C7.08456 29.8711 5.67979 27.4834 4.75534 24.0179C4.25754 22.1516 4.27053 18.3436 4.78131 16.3949C6.73831 8.92957 12.9319 3.98749 20.3306 3.98749C24.3451 3.98749 28.0236 5.45871 31.0816 8.28765C32.3842 9.49262 32.7399 9.55185 33.7311 8.72973C34.6365 7.97885 34.7896 7.75376 34.7896 7.17356C34.7896 6.7586 34.5929 6.48893 33.5755 5.50921ZM33.7972 23.356C35.4104 15.9337 31.0257 8.56917 23.8052 6.5742C22.5837 6.23671 22.0128 6.16953 20.3623 6.16953C18.4675 6.16937 18.3674 6.18558 18.004 6.55206C17.5664 6.99305 17.5412 7.31978 17.8532 8.5076C18.1784 9.7464 18.4466 9.91007 20.1545 9.91288C21.9342 9.91568 23.2263 10.2197 24.8769 11.0238C27.165 12.1386 29.0094 14.3568 29.9742 17.1542C30.2943 18.082 30.3536 18.5492 30.3608 20.1987C30.3683 21.9106 30.3189 22.2991 29.9551 23.3976C27.789 29.9348 20.4119 32.6352 14.8029 28.9442C12.5229 27.4438 10.9072 25.0326 10.2985 22.2221C10.1429 21.5033 9.64806 21.1339 8.84238 21.135C7.73498 21.1362 6.96703 21.4023 6.76213 21.8556C6.51594 22.4003 6.82507 24.1179 7.42724 25.55C9.71873 31.0012 14.6617 34.384 20.3354 34.384C26.6833 34.384 32.4222 29.6828 33.7972 23.356ZM83.4246 10.6625L82.9907 10.2865C82.2982 9.68654 81.0026 9.80703 80.4527 10.5227C80.31 10.7083 80.2631 12.8322 80.2594 19.2753L80.2545 27.7826L80.6123 28.1216C80.8834 28.3782 81.1621 28.4605 81.7596 28.4605C83.2872 28.4605 83.4 28.2694 83.502 25.5112C83.546 24.3193 83.6458 23.4002 83.7339 23.3748C83.819 23.3504 84.761 24.467 85.8273 25.8563C87.6142 28.1847 87.8081 28.3861 88.3039 28.4287C88.7357 28.4658 88.9713 28.3634 89.4968 27.9099C90.0345 27.446 90.1516 27.2477 90.1516 26.8011C90.1516 26.7054 90.1533 26.6279 90.1456 26.5514C90.1061 26.1591 89.8187 25.7921 87.7795 23.1105C86.9427 22.0101 86.2817 21.0895 86.3104 21.0648C88.9007 18.8423 89.9422 17.9271 90.0333 17.7933C90.0957 17.7017 90.1451 17.3812 90.1429 17.0811C90.1363 16.1645 88.9741 15.0716 88.2513 15.3025C87.9855 15.3874 85.4266 17.4315 85.0484 17.8611C85.0058 17.9095 84.6437 18.2155 84.2436 18.5411L83.5163 19.1333L83.4246 10.6625ZM26.7482 15.8775C26.7482 14.7022 24.612 12.9195 22.5013 12.3337C19.545 11.5133 16.5374 12.3537 14.5029 14.5688C12.0343 17.2563 11.5147 20.6991 13.0885 23.9399C14.4175 26.6766 17.2272 28.4605 20.2086 28.4605C22.4585 28.4605 24.1999 27.7579 25.7649 26.2187C27.1624 24.8442 27.1245 24.2038 25.5943 23.3332C24.4752 22.6966 24.1342 22.7173 23.2662 23.4745C22.1336 24.4627 21.7221 24.6252 20.3306 24.6337C19.3075 24.6401 18.9629 24.5742 18.339 24.2529C16.9895 23.5583 16.1045 22.2243 15.9652 20.6747C15.6145 16.7762 19.9655 14.3663 22.9833 16.7874C24.2048 17.7673 24.3416 17.8094 25.0971 17.4393C26.0998 16.9483 26.7482 16.3349 26.7482 15.8775ZM40.666 13.8754C40.666 13.1392 40.5911 12.8182 40.3455 12.5036C40.0608 12.1387 39.9179 12.0929 39.0655 12.0929C37.6544 12.0929 37.4192 12.311 37.4162 13.6216C37.4135 14.8408 37.3133 15.05 36.6239 15.2763C36.0023 15.4804 35.722 15.9929 35.722 16.9252C35.722 17.8298 35.9943 18.3548 36.5393 18.5013C36.7849 18.5674 36.962 18.6142 37.0896 18.721C37.4199 18.9976 37.4186 19.6768 37.4186 22.1357C37.4186 25.1868 37.4303 25.3048 37.807 26.0527C38.2901 27.0114 39.265 27.7698 40.5211 28.1638C41.7507 28.5495 42.5494 28.5486 42.8975 28.1609C43.204 27.8193 43.3808 26.7997 43.2348 26.2139C43.1142 25.7294 42.5604 25.187 42.1865 25.187C42.0342 25.187 41.6296 25.0741 41.2877 24.9362L40.666 24.6855V21.7462C40.666 19.6472 40.6464 18.8972 40.9929 18.6302C41.2038 18.4677 41.5504 18.484 42.1195 18.484C43.1671 18.484 43.295 18.3071 43.295 16.8576C43.295 15.5198 43.025 15.2105 41.8568 15.2105C41.406 15.2105 40.9537 15.1263 40.8516 15.0235C40.7474 14.9184 40.666 14.4151 40.666 13.8754ZM49.2564 16.0091C48.9756 16.2705 48.6286 16.1411 48.3668 15.6772C48.1087 15.22 48.0779 15.2105 46.87 15.2105C45.955 15.2105 45.5739 15.2738 45.3936 15.4554C45.181 15.6699 45.1507 16.4643 45.1507 21.8168C45.1507 26.509 45.1963 27.9961 45.3468 28.2034C45.5122 28.4317 45.7589 28.4666 46.9318 28.4281L48.3208 28.3825L48.4037 24.9531C48.4811 21.7568 48.511 21.476 48.8465 20.8223C49.0444 20.4365 49.3549 19.956 49.5368 19.7546C50.0233 19.2156 51.2519 18.6353 52.128 18.5308C53.0854 18.4164 53.5023 17.9575 53.4992 17.0211C53.4961 16.0632 53.3725 15.7608 52.8599 15.4556C52.5058 15.2447 52.2229 15.203 51.6724 15.2808C50.8342 15.3991 49.4698 15.8104 49.2564 16.0091ZM64.4772 17.3405C63.5822 16.3533 62.2597 15.6152 60.9418 15.3672C59.9914 15.1884 59.5748 15.1903 58.6318 15.3773C57.5562 15.5907 56.3536 16.2244 55.5037 17.0259C52.0551 20.2773 52.9315 25.8741 57.2055 27.8967C58.1221 28.3305 58.3644 28.3762 59.7644 28.3791C61.0917 28.3821 61.4477 28.3244 62.2773 27.972C62.9789 27.6739 63.2438 27.6181 63.2438 27.7684C63.2438 28.4416 65.196 28.7322 65.8942 28.1628C66.2516 27.8714 66.2604 27.8006 66.3118 24.8503C66.3903 20.33 66.0962 19.1261 64.4772 17.3405ZM78.8627 18.0865C78.8627 17.2563 77.6028 16.167 76.0191 15.628C72.6187 14.4706 68.9373 16.352 67.8379 19.809C67.2979 21.5072 67.3641 22.9014 68.0626 24.5441C69.8102 28.6536 75.1425 29.7683 78.3601 26.6968C79.0622 26.0266 79.0453 25.3916 78.3035 24.5639C77.8413 24.0482 77.6441 23.9399 77.1677 23.9399C76.7967 23.9399 76.4957 24.0461 76.3241 24.2373C76.1772 24.4009 75.701 24.6889 75.266 24.8777C73.0441 25.8412 70.7308 24.2799 70.7584 21.8355C70.771 20.7136 71.0519 20.1125 71.9087 19.3732C73.2269 18.2359 74.8222 18.2892 76.2843 19.5193C76.9179 20.0524 77.3712 19.9861 78.1702 19.2437C78.7212 18.7316 78.8627 18.4953 78.8627 18.0865ZM57.4113 24.0444C55.8414 22.242 56.6972 19.3841 59.032 18.6312C59.6795 18.4225 60.749 18.5982 61.4874 19.0345C62.3087 19.5196 62.957 20.5811 63.0541 21.6C63.3536 24.743 59.4811 26.4206 57.4113 24.0444ZM49.1765 32.5572C48.9136 32.6266 48.8621 32.5658 48.8621 32.187C48.8621 31.8883 48.7831 31.734 48.6301 31.734C48.4424 31.734 48.3982 31.983 48.3982 33.0395V34.345L48.8875 34.4437C49.2096 34.5086 49.5 34.4609 49.738 34.3037C50.4687 33.821 49.9931 32.3419 49.1765 32.5572ZM54.1011 32.6387C54.4179 32.6016 54.5065 32.5063 54.5065 32.2017C54.5065 31.8971 54.4179 31.8017 54.1011 31.7646C53.8442 31.7345 53.6617 31.8059 53.6033 31.9594C53.4417 32.3837 53.6657 32.6896 54.1011 32.6387ZM50.9838 33.6825L50.8015 33.1463C50.618 32.6071 50.2545 32.308 50.2531 32.6953C50.2526 32.8096 50.37 33.2339 50.5137 33.6383C50.7633 34.3399 50.762 34.3881 50.4897 34.6914C50.1762 35.0406 50.255 35.2562 50.6416 35.1067C50.8925 35.0096 51.5422 33.7176 51.7301 32.9421C51.8872 32.2928 51.5199 32.4073 51.2295 33.098L50.9838 33.6825ZM49.2509 33.9943C48.9292 33.9943 48.7702 33.6029 48.9258 33.1943C49.0874 32.7698 49.558 33.0188 49.558 33.5288C49.558 33.8892 49.4887 33.9943 49.2509 33.9943ZM60.267 34.5366C60.0757 34.2523 59.6754 33.9316 59.3778 33.8241C58.6072 33.5454 58.1323 33.563 57.4883 33.8939C56.989 34.1505 56.8992 34.1569 56.6944 33.9505C56.5675 33.8225 56.3537 33.7603 56.2197 33.8122C56.01 33.8933 55.9756 34.2998 55.9756 36.7007C55.9756 39.2015 56.0036 39.5055 56.2422 39.5978C56.7563 39.7967 56.9035 39.27 56.9035 37.2309C56.9035 35.3941 56.921 35.2875 57.2831 34.9226C57.5698 34.6334 57.8273 34.5399 58.3359 34.5399C59.5907 34.5399 59.8318 35.0704 59.838 37.8432C59.8417 39.5192 59.9164 39.7649 60.369 39.5898C60.5778 39.5091 60.6149 39.1602 60.6149 37.2742C60.6149 35.2284 60.5875 35.013 60.267 34.5366ZM65.6652 34.9216C65.8053 34.5536 65.1591 33.9684 64.3998 33.7758C63.9956 33.6732 63.8094 33.6248 63.6249 33.6308C63.4605 33.6362 63.2975 33.6846 62.9829 33.7764C62.329 33.9672 61.852 34.6026 61.852 35.283C61.852 35.994 62.5751 36.6932 63.7209 37.0904C64.1814 37.25 64.6453 37.4516 64.7516 37.5381C65.0459 37.778 64.9825 38.4056 64.6458 38.5874C64.1356 38.8625 63.017 38.781 62.583 38.4369C62.1573 38.0993 61.7707 38.0354 61.6221 38.2778C61.4477 38.5623 61.874 39.0856 62.5218 39.382C64.1194 40.1133 65.8727 39.4148 65.8727 38.0472C65.8727 37.3007 65.4804 36.9088 64.08 36.2566C62.9396 35.7255 62.7799 35.6018 62.7799 35.2481C62.7799 34.9728 62.8986 34.7904 63.1546 34.6729C63.6043 34.4663 64.5301 34.6138 64.7936 34.9336C65.0415 35.2348 65.5486 35.2278 65.6652 34.9216ZM71.537 35.8337C71.4125 34.9184 71.0602 34.28 70.5256 34.0015C69.1467 33.2825 67.7096 33.7107 67.0032 35.051C66.6421 35.7361 66.6396 37.704 66.9992 38.3856C67.6391 39.599 69.3247 40.0392 70.6666 39.3434C71.3983 38.964 71.6418 38.5052 71.202 38.3351C71.0587 38.2798 70.7471 38.3501 70.5095 38.4915C70.2646 38.6374 69.7457 38.7487 69.3107 38.7487C68.6883 38.7487 68.467 38.6712 68.1361 38.3378C67.9118 38.1118 67.7284 37.8368 67.7284 37.7269C67.7284 37.617 67.6862 37.4162 67.6346 37.2806C67.5523 37.0646 67.7615 37.034 69.3247 37.034C71.464 37.034 71.6839 36.9147 71.537 35.8337ZM77.1616 36.087C77.1616 35.1344 76.646 34.2601 75.8767 33.9081C74.28 33.1773 72.7644 34.0172 72.3553 35.8594C71.8767 38.0154 73.013 39.6882 74.9518 39.6815C75.7853 39.6785 76.8946 39.1442 76.9784 38.7051C77.0538 38.31 76.5727 38.1961 76.0767 38.4915C75.8302 38.6383 75.3124 38.7487 74.8706 38.7487C74.1957 38.7487 74.0448 38.6871 73.6959 38.269C73.4757 38.0053 73.2956 37.7305 73.2956 37.6583C73.2956 37.5861 73.2533 37.4162 73.2017 37.2806C73.1196 37.0649 73.3237 37.034 74.8356 37.034C76.9184 37.034 77.1616 36.935 77.1616 36.087ZM54.5839 36.7601C54.5839 35.4061 54.5143 34.2323 54.4238 34.0619C54.2638 33.7606 53.9535 33.6683 53.7591 33.8644C53.7024 33.9215 53.656 35.2117 53.656 36.7316C53.656 39.2032 53.6841 39.5057 53.9226 39.5978C54.4622 39.8065 54.5839 39.2843 54.5839 36.7601ZM82.6599 33.9092C82.498 34.0448 82.2862 34.0495 81.8501 33.9274C80.6927 33.6035 79.8685 33.7637 79.0475 34.4721C77.4353 35.8632 77.6311 38.0645 79.4799 39.3333C80.0446 39.7208 81.4124 39.821 81.9773 39.5163C82.262 39.3627 82.2732 39.3769 82.1097 39.6849C81.8445 40.1844 81.0902 40.4556 80.4567 40.2793C79.5827 40.0361 79.0357 40.4087 79.2532 41.0992C79.4782 41.814 81.6544 41.9036 82.5515 41.235C83.604 40.4506 83.728 40.0466 83.786 37.2159C83.8148 35.8155 83.7964 34.5012 83.7451 34.2955C83.6368 33.8606 82.9924 33.6311 82.6599 33.9092ZM89.6781 35.0191C89.4023 34.6351 88.9342 34.2364 88.5569 34.0637C87.8027 33.7185 86.8702 33.6857 86.1983 33.9807C85.5531 34.2638 84.6107 35.4089 84.4904 36.056C84.1273 38.0069 85.4582 39.684 87.3696 39.684C88.2588 39.684 88.8068 39.4455 89.3982 38.8015C90.024 38.12 90.1516 37.7602 90.1516 36.678C90.1516 35.8095 90.0892 35.591 89.6781 35.0191ZM67.7515 35.5531C67.818 35.2959 68.066 34.9645 68.3029 34.8169C68.8966 34.4465 69.8156 34.4615 70.1989 34.8478C70.5049 35.1562 70.7704 35.8903 70.6278 36.0339C70.5861 36.0759 69.8947 36.0903 69.0913 36.0657L67.6307 36.0208L67.7515 35.5531ZM73.258 35.7073C73.2988 35.492 73.538 35.1413 73.7896 34.9279C74.7014 34.1547 76.2338 34.64 76.2338 35.702V36.0987H73.1838L73.258 35.7073ZM79.5428 37.4098C79.2699 36.7514 79.3912 36.1615 79.9167 35.5921C81.0323 34.3832 82.8614 35.8217 82.2093 37.395C81.948 38.0256 81.5627 38.2811 80.873 38.2811C80.1873 38.2811 79.7984 38.0262 79.5428 37.4098ZM86.4864 38.0468C85.7064 37.496 85.7045 36.0494 86.483 35.4396C87.1255 34.9363 88.2676 35.1802 88.5881 35.8894C88.8946 36.5674 88.8008 37.4745 88.3801 37.8984C87.9359 38.3464 87.0131 38.4187 86.4864 38.0468ZM89.5772 39.7953C89.859 40.0795 90.1516 39.9387 90.1516 39.5189C90.1516 39.3233 90.0455 39.2163 89.8514 39.2163C89.435 39.2163 89.2953 39.5113 89.5772 39.7953Z" fill="#16132B"/>
</g>
<defs>
<clipPath id="clip0_4359_36494">
<rect width="89.5111" height="41.3778" fill="white" transform="translate(0.640625 0.311523)"/>
</clipPath>
</defs>
</svg>
