<svg width="141" height="28" viewBox="0 0 141 28" fill="none" xmlns="http://www.w3.org/2000/svg">
<path fill-rule="evenodd" clip-rule="evenodd" d="M93.5635 0.871841C89.9439 2.21479 88.1753 5.56719 88.1936 11.05C88.212 16.4452 89.5037 19.3703 92.5471 20.9078C94.7989 22.0455 98.4652 22.0914 100.587 21.0088C102.493 20.0368 102.597 19.8343 101.765 18.7306C101.086 17.8306 101.057 17.8272 99.49 18.4542C97.383 19.2972 95.7889 19.2555 94.2714 18.3176C92.4151 17.1702 91.6452 15.2488 91.4779 11.3448C91.3565 8.51954 91.4618 7.73972 92.1566 6.30413C92.6091 5.36965 93.4119 4.32186 93.941 3.97502C95.1825 3.16152 97.4626 3.13816 98.9813 3.92372C100.503 4.71043 100.967 4.70124 101.596 3.87204C102.418 2.79056 102.22 2.30705 100.626 1.49393C98.5893 0.454562 95.4363 0.177013 93.5635 0.871841ZM0.687514 0.80944C0.69096 0.861887 2.02664 5.47033 3.65556 11.05L6.61671 21.1949L8.62539 21.3105C9.73022 21.3744 10.6341 21.3434 10.6341 21.242C10.6341 21.1401 11.9261 16.7487 13.5053 11.483C15.0844 6.21723 16.3764 1.63022 16.3764 1.2895C16.3764 0.798721 16.0445 0.69421 14.7831 0.78762L13.1898 0.905146L10.9794 8.75306C9.76353 13.0694 8.74483 16.6871 8.71535 16.7924C8.68588 16.8977 7.88654 14.2275 6.93905 10.8586C5.99155 7.48974 4.95869 3.82916 4.64401 2.72356L4.07169 0.713734H2.37616C1.44359 0.713734 0.683686 0.756993 0.687514 0.80944ZM19.212 1.67577C18.9169 2.85258 19.606 3.77633 20.7789 3.77633C21.9519 3.77633 22.641 2.85258 22.3458 1.67577C22.146 0.87988 21.875 0.713734 20.7789 0.713734C19.6829 0.713734 19.4119 0.87988 19.212 1.67577ZM81.8395 11.05V21.3863H83.3708H84.9021V11.05V0.713734H83.3708H81.8395V11.05ZM30.0624 7.00202C29.2731 7.28378 28.6268 7.36226 28.6268 7.17659C28.6268 6.99092 28.11 6.83893 27.4784 6.83893H26.3299V14.1126V21.3863H27.8612H29.3925V15.6343V9.88239L30.3744 9.50914C31.7312 8.99347 34.1215 9.04133 34.6755 9.59527C34.9917 9.91149 35.1349 11.8291 35.1349 15.7423V21.4303L36.7619 21.3124L38.3889 21.1949L38.4942 15.3989C38.6121 8.93184 38.5026 9.15388 41.5725 9.14124C44.2618 9.13014 44.3227 9.27447 44.3227 15.6573V21.3863H45.854H47.3853V15.3465C47.3853 10.382 47.2743 9.14737 46.7609 8.41502C45.4156 6.49439 41.6058 5.89106 38.7951 7.15362C37.3499 7.8025 37.2305 7.80212 35.9384 7.14366C34.3577 6.33743 32.078 6.28269 30.0624 7.00202ZM122.938 7.00967C122.143 7.35575 121.606 7.40437 121.355 7.15362C121.147 6.94498 120.568 6.83166 120.07 6.9021L119.165 7.03035V14.1126V21.1949H120.696H122.228L122.333 15.3989C122.451 8.93184 122.341 9.15388 125.411 9.14124C128.1 9.13014 128.161 9.27447 128.161 15.6573V21.3863H129.693H131.224V15.6343V9.88239L132.206 9.50914C133.702 8.94064 136.07 9.0597 136.748 9.7373C137.239 10.2288 137.349 11.3517 137.349 15.8625V21.3863H138.88H140.412V15.8231C140.412 11.965 140.25 9.8732 139.885 8.99807C138.895 6.62991 134.981 5.73448 131.822 7.15362C130.376 7.8025 130.257 7.80212 128.965 7.14366C127.377 6.33361 124.632 6.27274 122.938 7.00967ZM19.235 7.30751C19.1263 7.59118 19.0845 10.8314 19.1424 14.5088L19.2476 21.1949H20.7789H22.3102V14.1126V7.03035L20.8716 6.91129C19.9291 6.83357 19.3648 6.97024 19.235 7.30751ZM50.8307 17.1752V27.5115H52.362H53.8933V24.2318C53.8933 21.0456 53.917 20.9594 54.7198 21.2144C56.1577 21.6707 59.0186 21.5459 60.2038 20.9751C60.8427 20.6673 61.7661 19.667 62.3001 18.7042C63.0861 17.287 63.2514 16.4777 63.2377 14.1126C63.217 10.6335 62.4571 8.67879 60.7114 7.61454C59.2953 6.75127 56.1841 6.56904 54.4047 7.24549C53.6498 7.53261 53.2949 7.53261 53.1992 7.24549C53.125 7.02192 52.5614 6.83893 51.9474 6.83893H50.8307V17.1752ZM69.2335 7.50964C66.9545 8.67152 66.3523 9.90268 66.2034 13.7018C66.0357 17.9818 66.8546 19.9025 69.3246 21.0237C71.1158 21.8373 74.3331 21.9888 76.5757 21.366C77.811 21.023 78.0113 20.8132 78.0113 19.8619V18.7563L74.6615 18.9707C70.9213 19.2095 69.8598 18.7555 69.3755 16.7089L69.1293 15.668L73.8576 15.5605L78.5855 15.4525L78.5281 12.8968C78.4316 8.58653 76.774 6.83855 72.7842 6.8397C71.4102 6.84008 70.0393 7.09849 69.2335 7.50964ZM106.915 7.37948C104.303 8.53982 103.275 10.5899 103.284 14.616C103.295 19.5254 105.395 21.7672 109.983 21.7683C113.059 21.7695 114.676 20.8787 115.894 18.512C116.63 17.0833 116.83 16.1255 116.811 14.1145C116.769 9.46971 114.328 6.82324 110.116 6.85386C108.987 6.86229 107.546 7.09849 106.915 7.37948ZM59.2314 9.8801C60.6398 11.2885 60.7941 16.1263 59.4936 18.1104C58.9718 18.9067 58.5504 19.0882 57.2342 19.084C53.8098 19.0729 53.8933 19.1981 53.8933 14.0961C53.8933 9.04707 53.762 9.2649 56.8602 9.18029C58.0045 9.1489 58.7081 9.35677 59.2314 9.8801ZM112.348 10.0596C113.372 10.9401 113.423 11.1407 113.423 14.304C113.423 17.4673 113.372 17.6679 112.348 18.5484C110.937 19.7623 109.026 19.7696 107.627 18.5668C106.719 17.785 106.552 17.313 106.413 15.1175C106.234 12.3084 106.742 10.5826 108.009 9.69481C109.225 8.8434 111.12 9.00304 112.348 10.0596ZM74.8576 9.99724C75.0696 10.2606 75.3629 11.0355 75.5091 11.72L75.7752 12.9641H72.4905C69.5405 12.9641 69.2063 12.8914 69.2063 12.2502C69.2063 11.8574 69.5635 11.0822 69.9999 10.5275C70.6603 9.68792 71.1013 9.51871 72.6326 9.51871C73.6444 9.51871 74.6455 9.73424 74.8576 9.99724Z" fill="#16132B"/>
</svg>
