<svg width="103" height="28" viewBox="0 0 103 28" fill="none" xmlns="http://www.w3.org/2000/svg">
<path d="M69.5335 14.152C69.5335 15.3859 69.9402 16.4418 70.7536 17.3198C71.5669 18.1978 72.5785 18.6368 73.7884 18.6368C74.9982 18.6368 76.0098 18.2077 76.8232 17.3495C77.6366 16.4913 78.0433 15.4255 78.0433 14.152C78.0433 12.8786 77.6305 11.7969 76.8048 10.9071C75.9792 10.0173 74.9778 9.57234 73.8007 9.57234C72.6235 9.57234 71.616 10.0271 70.7781 10.9367C69.9402 11.8464 69.5253 12.9181 69.5335 14.152ZM68.3134 19.6393C66.8134 18.1325 66.0634 16.2975 66.0634 14.1342C66.0634 11.9709 66.8134 10.1102 68.3134 8.55199C69.8135 6.9938 71.6344 6.2147 73.7761 6.2147C75.4029 6.2147 76.8396 6.65368 78.0862 7.53165C78.1698 7.15736 78.3869 6.82347 78.6993 6.58843C79.0224 6.33843 79.426 6.20616 79.8397 6.2147C80.277 6.2147 80.6633 6.37685 80.9984 6.70114C81.1589 6.85428 81.2857 7.03732 81.3711 7.23921C81.4564 7.44109 81.4986 7.65762 81.495 7.87572V19.9834C81.495 22.0518 80.7389 23.8235 79.2266 25.2987C77.7143 26.7738 75.8974 27.5114 73.7761 27.5114C72.6007 27.5228 71.4404 27.2539 70.398 26.7283C70.1896 26.6403 70.0037 26.5091 69.8533 26.3441C69.7028 26.1791 69.5916 25.9843 69.5274 25.7732C69.4527 25.5614 69.423 25.3372 69.4398 25.114C69.4567 24.8908 69.5198 24.6732 69.6255 24.4741C69.7207 24.2755 69.8568 24.0978 70.0255 23.952C70.1941 23.8061 70.3918 23.6951 70.6064 23.6258C71.0439 23.4795 71.5229 23.5029 71.943 23.691C72.4988 23.9837 73.2019 24.13 74.052 24.13C74.9022 24.13 75.7156 23.8116 76.4921 23.1749C77.2579 22.5638 77.7856 21.7185 77.9881 20.7783C76.7456 21.6167 75.3416 22.034 73.7761 22.03C71.6303 22.03 69.8094 21.2351 68.3134 19.6452" fill="#16132B"/>
<path d="M88.2148 10.8243C87.4423 11.7023 87.056 12.7899 87.056 14.0871C87.056 15.3842 87.4423 16.4916 88.2148 17.4091C89.0527 18.1842 90.0602 18.5718 91.2373 18.5718C92.4145 18.5718 93.422 18.1842 94.2599 17.4091C95.0978 16.4876 95.5147 15.3803 95.5106 14.0871C95.5065 12.7938 95.0896 11.7063 94.2599 10.8243C93.3362 10.0294 92.3286 9.63197 91.2373 9.63197C90.146 9.63197 89.1385 10.0294 88.2148 10.8243ZM91.2986 21.9888C89.1324 21.9888 87.3012 21.2156 85.8053 19.6693C84.3093 18.1229 83.5593 16.2721 83.5552 14.1167C83.5552 11.9614 84.3114 10.1046 85.8237 8.54638C87.336 6.98818 89.1528 6.20908 91.2741 6.20908C93.3954 6.20908 95.2 6.99807 96.6878 8.57604C98.1755 10.154 98.9194 12.0306 98.9194 14.2057C98.9194 16.3809 98.1694 18.1783 96.6694 19.5981C95.2552 21.1879 93.4649 21.9828 91.2986 21.9828" fill="#16132B"/>
<path d="M54.1573 9.16833C54.9421 8.31805 56.0273 7.89291 57.4129 7.89291C58.214 7.89291 58.8986 8.02737 59.4667 8.2963C60.0349 8.56522 60.462 8.93895 60.7481 9.41749C61.0347 9.88809 61.2456 10.3982 61.3735 10.9302C61.5059 11.5086 61.5696 12.0997 61.5635 12.6921H52.833C52.927 11.1932 53.3685 10.0186 54.1573 9.16833ZM52.5571 19.9353C53.7751 21.2443 55.4979 21.8989 57.7255 21.8989C58.5676 21.9048 59.4048 21.7745 60.2025 21.5133C60.979 21.2562 61.5472 21.0051 61.9069 20.7599C62.2274 20.5501 62.5252 20.3096 62.7959 20.0421C63.0288 19.8048 63.1453 19.5517 63.1453 19.2828C63.1513 19.0282 63.0546 18.7813 62.8756 18.5946C62.7921 18.5032 62.6892 18.4303 62.5738 18.3812C62.4584 18.332 62.3333 18.3077 62.2073 18.3099C62.0295 18.3099 61.8333 18.3811 61.6187 18.5175C61.0876 18.9371 60.5023 19.2881 59.8775 19.5616C59.2848 19.8147 58.5675 19.9412 57.7255 19.9412C56.2051 19.9412 55.0095 19.4528 54.1389 18.476C53.2683 17.4991 52.833 16.1881 52.833 14.5429H62.2992C62.6058 14.5429 62.8531 14.4836 63.0411 14.365C63.2404 14.2356 63.3825 14.0388 63.4396 13.8133C63.5055 13.6043 63.5507 13.3898 63.5745 13.1726C63.5908 12.9946 63.599 12.7435 63.599 12.4192C63.5982 11.9941 63.5633 11.5696 63.4948 11.1497C63.4138 10.6759 63.2991 10.2082 63.1515 9.74969C62.9954 9.24768 62.7574 8.77304 62.4464 8.34376C62.1251 7.90093 61.7482 7.49842 61.3244 7.14545C60.8871 6.7816 60.3332 6.4929 59.6629 6.27934C58.9926 6.06578 58.2405 5.96098 57.4067 5.96494C55.2936 5.96494 53.6525 6.65505 52.4836 8.03528C51.3146 9.41551 50.7301 11.3771 50.7301 13.92C50.7301 16.6251 51.3391 18.6322 52.5571 19.9412V19.9353ZM39.0506 9.16833C39.8353 8.31805 40.9205 7.89291 42.3061 7.89291C43.1072 7.89291 43.7898 8.02737 44.3539 8.2963C44.9179 8.56522 45.3471 8.94093 45.6414 9.42342C45.928 9.89402 46.1389 10.4041 46.2667 10.9361C46.3989 11.5146 46.4626 12.1056 46.4568 12.698H37.7324C37.8264 11.1991 38.2679 10.0245 39.0567 9.17427L39.0506 9.16833ZM37.4504 19.9412C38.6684 21.2503 40.3912 21.9048 42.6188 21.9048C43.4609 21.9108 44.2981 21.7804 45.0957 21.5192C45.8723 21.2621 46.4405 21.011 46.8001 20.7658C47.1207 20.5562 47.4186 20.3157 47.6891 20.048C47.9221 19.8107 48.0386 19.5576 48.0386 19.2887C48.0446 19.0341 47.9478 18.7872 47.7688 18.6006C47.6854 18.5091 47.5824 18.4363 47.467 18.3871C47.3517 18.338 47.2266 18.3136 47.1006 18.3158C46.9207 18.3158 46.7245 18.385 46.512 18.5234C45.9808 18.943 45.3955 19.2939 44.7708 19.5675C44.1781 19.8206 43.4608 19.9472 42.6188 19.9472C41.0983 19.9472 39.9028 19.4587 39.0322 18.4819C38.1616 17.5051 37.7283 16.1941 37.7324 14.5489H47.1986C47.5052 14.5489 47.7525 14.4895 47.9405 14.3709C48.1398 14.2415 48.2819 14.0447 48.339 13.8192C48.4049 13.6103 48.4501 13.3957 48.4739 13.1785C48.4902 13.0005 48.4984 12.7494 48.4984 12.4251C48.4978 12 48.463 11.5755 48.3942 11.1556C48.3155 10.682 48.2028 10.2142 48.057 9.75562C47.9005 9.25376 47.6625 8.77918 47.3519 8.34969C47.0306 7.90687 46.6538 7.50435 46.23 7.15138C45.7926 6.78754 45.2388 6.49884 44.5685 6.28528C43.8981 6.07172 43.1461 5.96691 42.3123 5.97087C40.1991 5.97087 38.5581 6.66098 37.3891 8.04121C36.2201 9.42144 35.6336 11.3771 35.6295 13.9082C35.6295 16.6133 36.2385 18.6203 37.4565 19.9294L37.4504 19.9412ZM22.0371 19.4785C22.5235 20.1034 23.2633 20.6571 24.2565 21.1395C25.2497 21.622 26.3574 21.8652 27.5795 21.8692C28.634 21.8692 29.568 21.7189 30.3814 21.4184C31.1726 21.1317 31.8563 20.6211 32.3433 19.9531C32.8379 19.2808 33.0851 18.4602 33.0851 17.4912C33.0948 16.9139 32.969 16.3419 32.7173 15.8183C32.4961 15.3525 32.1641 14.944 31.7486 14.626C31.3173 14.3066 30.8577 14.0248 30.3752 13.7836C29.8711 13.529 29.351 13.3051 28.818 13.1133L27.2607 12.5556C26.7892 12.3892 26.3303 12.191 25.8874 11.9624C25.508 11.7692 25.1805 11.4929 24.9309 11.1556C24.6914 10.8303 24.5647 10.4398 24.5692 10.0404C24.5692 9.3285 24.841 8.81635 25.3846 8.50392C25.9282 8.19149 26.617 8.03528 27.4508 8.03528C28.2437 8.03528 28.912 8.15195 29.4556 8.38528C30.0279 8.63715 30.5459 8.99139 30.9822 9.42935C31.0681 9.51973 31.1721 9.5922 31.2879 9.64232C31.4037 9.69244 31.5289 9.71915 31.6557 9.72082C31.7826 9.72249 31.9084 9.69907 32.0256 9.65201C32.1428 9.60495 32.2488 9.53524 32.3372 9.44715C32.4277 9.35808 32.4987 9.25231 32.5461 9.13614C32.5935 9.01996 32.6163 8.89574 32.6131 8.77087C32.6131 8.56522 32.5333 8.35562 32.3739 8.14206C31.3399 6.73019 29.6988 6.02426 27.4508 6.02426C25.9957 6.02426 24.8063 6.36042 23.8825 7.03274C22.9588 7.70505 22.4969 8.69771 22.4969 10.0107C22.4969 10.6593 22.6175 11.2387 22.8587 11.7488C23.078 12.2308 23.4096 12.6571 23.8274 12.9946C24.2524 13.3281 24.7103 13.6201 25.1946 13.8666C25.6987 14.1272 26.2211 14.3532 26.758 14.5429L28.3152 15.0946C28.7834 15.2578 29.2419 15.446 29.6886 15.6582C30.0684 15.8344 30.4002 16.0945 30.6573 16.4175C30.8989 16.7283 31.0262 17.1083 31.019 17.4972C31.019 18.3039 30.7002 18.8991 30.0626 19.2828C29.4249 19.6664 28.5993 19.8582 27.5856 19.8582C25.9058 19.8582 24.5345 19.3144 23.4718 18.2268C23.2592 18.0133 23.0222 17.9045 22.7606 17.9006C22.6356 17.8977 22.5113 17.9205 22.3961 17.9675C22.2809 18.0146 22.1774 18.0848 22.0923 18.1734C21.9134 18.3554 21.8164 18.5986 21.8225 18.8497C21.8299 19.0759 21.9068 19.2948 22.0432 19.4785H22.0371ZM6.89973 21.4243C6.99548 21.5207 7.11084 21.5968 7.23852 21.6478C7.36621 21.6989 7.50345 21.7238 7.64158 21.7209C7.77889 21.7244 7.91541 21.6998 8.0422 21.6487C8.16899 21.5976 8.28318 21.5211 8.3773 21.4243C8.57347 21.2225 8.67925 20.9538 8.67158 20.6768V12.5022C8.67158 9.40958 10.1124 7.86325 12.9939 7.86325C13.7664 7.86325 14.4102 7.96607 14.9252 8.17172C15.4139 8.35467 15.8317 8.68015 16.1207 9.10308C16.4026 9.52084 16.6021 9.98543 16.7093 10.4734C16.8289 11.0674 16.8843 11.6718 16.8748 12.2768V20.6768C16.87 20.8155 16.8941 20.9537 16.9457 21.0831C16.9974 21.2126 17.0754 21.3306 17.1753 21.4302C17.271 21.5266 17.3864 21.6027 17.514 21.6538C17.6417 21.7048 17.779 21.7297 17.9171 21.7268C18.0544 21.7303 18.1909 21.7057 18.3177 21.6546C18.4445 21.6035 18.5587 21.527 18.6528 21.4302C18.7507 21.3296 18.8271 21.2112 18.8776 21.0819C18.9281 20.9526 18.9517 20.815 18.9471 20.6768V11.8378C18.9506 11.2697 18.9055 10.7022 18.8122 10.1412C18.7126 9.59723 18.5329 9.06985 18.2788 8.57511C18.0294 8.0658 17.6771 7.60996 17.2427 7.23443C16.8135 6.86663 16.2372 6.56805 15.5138 6.33867C14.7903 6.10929 13.9483 5.99262 12.9878 5.98867C11.9741 5.98867 11.0831 6.20618 10.3147 6.64121C9.54627 7.07624 8.99857 7.62793 8.67158 8.2963V7.2285C8.67619 7.09036 8.65257 6.9527 8.60206 6.82342C8.55156 6.69413 8.47518 6.57576 8.3773 6.47511C8.28318 6.3783 8.16899 6.30184 8.0422 6.25072C7.91541 6.19961 7.77889 6.17499 7.64158 6.1785C7.50345 6.17563 7.36621 6.20051 7.23852 6.25157C7.11084 6.30262 6.99548 6.37873 6.89973 6.47511C6.7999 6.5747 6.72184 6.69275 6.67022 6.8222C6.6186 6.95164 6.59449 7.08983 6.59931 7.2285V20.6768C6.59449 20.8155 6.6186 20.9537 6.67022 21.0831C6.72184 21.2126 6.7999 21.3306 6.89973 21.4302V21.4243ZM0.615478 21.4302C0.711226 21.5266 0.826584 21.6027 0.954271 21.6538C1.08196 21.7048 1.2192 21.7297 1.35733 21.7268C1.49463 21.7303 1.63116 21.7057 1.75795 21.6546C1.88473 21.6035 1.99893 21.527 2.09304 21.4302C2.19093 21.3296 2.26731 21.2112 2.31781 21.0819C2.36831 20.9526 2.39194 20.815 2.38733 20.6768V7.23443C2.39194 7.09629 2.36831 6.95863 2.31781 6.82935C2.26731 6.70006 2.19093 6.5817 2.09304 6.48104C1.99893 6.38424 1.88473 6.30777 1.75795 6.25666C1.63116 6.20554 1.49463 6.18093 1.35733 6.18443C1.2192 6.18157 1.08196 6.20645 0.954271 6.2575C0.826584 6.30855 0.711226 6.38467 0.615478 6.48104C0.51593 6.58083 0.438056 6.69891 0.386458 6.82831C0.33486 6.95771 0.310583 7.0958 0.31506 7.23443V20.6768C0.310233 20.8155 0.334349 20.9537 0.385966 21.0831C0.437583 21.2126 0.515643 21.3306 0.615478 21.4302ZM0.449941 2.73188C0.666569 2.95335 0.969031 3.06408 1.35733 3.06408C1.74562 3.06408 2.04604 2.95335 2.25858 2.73188C2.47112 2.51041 2.57739 2.19996 2.57739 1.80052C2.57739 0.926508 2.1707 0.489502 1.35733 0.489502C0.54395 0.489502 0.133175 0.928486 0.125 1.80645C0.125 2.20589 0.233313 2.51634 0.449941 2.73781" fill="#16132B"/>
<path d="M101.833 22.1902H102.048L101.944 20.547H101.662L101.361 21.3419C101.288 21.5495 101.226 21.7275 101.183 21.8936H101.177C101.134 21.7216 101.079 21.5436 101.006 21.3419L100.717 20.547H100.435L100.319 22.1902H100.527L100.57 21.4843C100.583 21.2411 100.601 20.9623 100.601 20.7606H100.607C100.656 20.9563 100.724 21.1699 100.803 21.4012L101.079 22.1843H101.245L101.545 21.3894C101.631 21.164 101.698 20.9563 101.76 20.7665H101.766C101.766 20.9682 101.778 21.247 101.79 21.4724L101.833 22.1902ZM99.4361 22.1902H99.6568V20.725H100.178V20.547H98.9211V20.725H99.4361V22.1902Z" fill="#16132B"/>
</svg>
