<svg width="107" height="28" viewBox="0 0 107 28" fill="none" xmlns="http://www.w3.org/2000/svg">
<g clip-path="url(#clip0_4359_36464)">
<path d="M32.965 14.8001H29.3406C29.25 14.8001 29.1616 14.8283 29.0881 14.8807C29.0145 14.9331 28.9595 15.007 28.9307 15.0921L26.3061 22.7385H26.2361L23.4866 15.0846C23.4562 15.0012 23.4005 14.929 23.3271 14.8781C23.2538 14.8272 23.1663 14.7999 23.0767 14.8001H19.5248C19.468 14.8001 19.4118 14.8111 19.3593 14.8327C19.3068 14.8542 19.2591 14.8857 19.219 14.9255C19.1788 14.9652 19.147 15.0124 19.1253 15.0643C19.1035 15.1163 19.0924 15.172 19.0924 15.2282V24.2801H8.94909C7.54899 24.2801 6.20624 23.7295 5.21622 22.7494C4.22619 21.7693 3.67 20.4399 3.67 19.0538C3.67 17.6677 4.22619 16.3384 5.21622 15.3583C6.20624 14.3782 7.54899 13.8276 8.94909 13.8276C9.01158 13.8276 10.7263 13.7533 10.7263 13.7533C10.7729 13.7509 10.8185 13.7382 10.8595 13.716C10.9005 13.6939 10.936 13.6629 10.9634 13.6254C10.9907 13.5879 11.0092 13.5448 11.0175 13.4993C11.0258 13.4537 11.0236 13.407 11.0112 13.3624L10.6488 12.0137C10.4069 11.1155 10.3523 10.1779 10.4883 9.25803C10.6242 8.33821 10.9478 7.4554 11.4394 6.66338C11.9311 5.87135 12.5804 5.18669 13.3479 4.65109C14.1154 4.11549 14.985 3.74016 15.9037 3.54796C16.8225 3.35576 17.7711 3.35072 18.6918 3.53314C19.6126 3.71555 20.4862 4.08161 21.2595 4.60902C22.0328 5.13642 22.6895 5.81414 23.1897 6.60089C23.6899 7.38764 24.0231 8.26696 24.169 9.18529L24.3514 10.3657C24.3592 10.4063 24.375 10.4449 24.398 10.4794C24.421 10.5139 24.4507 10.5435 24.4854 10.5665C24.52 10.5895 24.559 10.6055 24.5999 10.6135C24.6408 10.6215 24.683 10.6214 24.7239 10.6131L25.7987 10.3929C26.1032 10.3276 26.4147 10.3002 26.726 10.3112C28.0933 10.3805 29.543 11.1996 29.7955 12.7041C29.8105 12.7744 29.8495 12.8374 29.906 12.8825C29.9624 12.9276 30.0329 12.952 30.1055 12.9516H32.505C32.5486 12.9517 32.5917 12.9429 32.6316 12.9257C32.6716 12.9085 32.7075 12.8833 32.7371 12.8517C32.7667 12.8201 32.7893 12.7827 32.8036 12.742C32.8179 12.7012 32.8234 12.658 32.82 12.615C32.5375 9.18529 29.6705 7.55455 26.9735 7.41845C26.9089 7.41547 26.8467 7.39302 26.7953 7.3541C26.744 7.31519 26.7058 7.26166 26.686 7.20069C25.9633 4.99495 24.4692 3.11696 22.4725 1.90461C20.4758 0.692253 18.1076 0.225129 15.794 0.587278C13.4805 0.949427 11.3734 2.11707 9.85191 3.88013C8.33042 5.6432 7.49443 7.88593 7.49434 10.2048C7.49434 10.3904 7.49434 10.5785 7.50934 10.7665C7.51456 10.8417 7.49213 10.9162 7.44618 10.9762C7.40023 11.0363 7.33387 11.0778 7.25938 11.0932C5.27591 11.5056 3.51723 12.6312 2.32313 14.2524C1.12902 15.8737 0.584241 17.8755 0.794033 19.8712C1.00382 21.8669 1.95331 23.7148 3.45903 25.0579C4.96475 26.401 6.91984 27.1439 8.94659 27.1432H19.4173C19.4514 27.153 19.4867 27.158 19.5223 27.158H21.4944C21.5519 27.1584 21.6088 27.1474 21.6618 27.1257C21.7149 27.104 21.7631 27.0721 21.8036 27.0318C21.8441 26.9915 21.8761 26.9436 21.8977 26.8909C21.9192 26.8382 21.93 26.7818 21.9294 26.725L21.8619 18.3981H21.9144L24.9763 26.9032C25.0067 26.9866 25.0624 27.0588 25.1358 27.1097C25.2092 27.1606 25.2966 27.1879 25.3863 27.1877H26.886C26.975 27.1879 27.0618 27.1609 27.1348 27.1104C27.2077 27.06 27.2631 26.9884 27.2934 26.9056L30.4404 18.4278H30.4929L30.4254 26.7547C30.4247 26.8115 30.4355 26.8679 30.4571 26.9206C30.4787 26.9733 30.5107 27.0212 30.5512 27.0615C30.5916 27.1018 30.6398 27.1337 30.6929 27.1554C30.746 27.1771 30.8029 27.1881 30.8603 27.1877H32.955C33.0699 27.1877 33.1801 27.1427 33.2616 27.0625C33.3431 26.9823 33.3892 26.8734 33.3899 26.7596V15.2282C33.3893 15.1161 33.3445 15.0087 33.2652 14.9287C33.1858 14.8488 33.0781 14.8026 32.965 14.8001Z" fill="#16132B"/>
<path d="M47.8738 16.2148C47.2473 15.644 46.5111 15.2038 45.7092 14.9206C43.95 14.3168 42.0368 14.3168 40.2776 14.9206C39.4792 15.2051 38.7466 15.6451 38.123 16.2148C37.5078 16.7866 37.023 17.4818 36.7007 18.2538C36.3484 19.1045 36.1741 20.017 36.1883 20.9363C36.1762 21.8561 36.3504 22.7691 36.7007 23.6212C37.0236 24.4051 37.508 25.1139 38.123 25.7023C38.743 26.2874 39.4758 26.7427 40.2776 27.041C42.0327 27.6682 43.9541 27.6682 45.7092 27.041C46.5146 26.744 47.2509 26.2886 47.8738 25.7023C48.488 25.1132 48.9722 24.4047 49.2961 23.6212C49.6452 22.7687 49.8194 21.856 49.8085 20.9363C49.8216 20.0171 49.6473 19.1048 49.2961 18.2538C48.9729 17.4823 48.4881 16.7873 47.8738 16.2148ZM46.3091 22.4853C46.1441 22.9361 45.8891 23.3493 45.5592 23.7003C45.2403 24.0386 44.855 24.3089 44.4269 24.4947C43.9684 24.6857 43.4759 24.7841 42.9784 24.7841C42.4809 24.7841 41.9884 24.6857 41.5299 24.4947C41.1041 24.3112 40.7224 24.0405 40.4101 23.7003C40.088 23.3463 39.8384 22.9336 39.6752 22.4853C39.4953 21.9885 39.4056 21.4641 39.4103 20.9363C39.4034 20.4249 39.488 19.9164 39.6602 19.4342C39.8178 18.9883 40.0672 18.5796 40.3926 18.234C40.7235 17.8873 41.1238 17.6127 41.568 17.4277C42.0121 17.2428 42.4904 17.1517 42.9721 17.1601C43.4727 17.1548 43.969 17.2525 44.4294 17.4471C44.8561 17.6307 45.2406 17.8984 45.5592 18.234C45.8812 18.5821 46.1301 18.9901 46.2916 19.4342C46.4712 19.9148 46.561 20.4238 46.5565 20.9363C46.568 21.4631 46.4842 21.9877 46.3091 22.4853Z" fill="#16132B"/>
<path d="M74.6821 16.2152C74.0552 15.6449 73.3192 15.2048 72.5175 14.921C71.6449 14.613 70.7243 14.4597 69.798 14.4682C68.874 14.4589 67.9557 14.6122 67.0859 14.921C66.2876 15.2055 65.5549 15.6456 64.9313 16.2152C64.3154 16.7864 63.8304 17.4817 63.509 18.2543C63.161 19.1058 62.9909 20.0183 63.0091 20.9367C62.993 21.8557 63.163 22.7686 63.509 23.6216C63.8311 24.406 64.3156 25.115 64.9313 25.7027C65.5513 26.2878 66.2841 26.7431 67.0859 27.0414C67.9531 27.362 68.8724 27.5214 69.798 27.5116C70.7259 27.5205 71.6476 27.3611 72.5175 27.0414C73.3226 26.7438 74.0589 26.2885 74.6821 25.7027C75.2964 25.1142 75.7799 24.4054 76.1019 23.6216C76.4522 22.7695 76.6264 21.8566 76.6143 20.9367C76.6286 20.0174 76.4542 19.1049 76.1019 18.2543C75.7805 17.4823 75.2965 16.7872 74.6821 16.2152ZM73.1174 22.4858C72.9523 22.9365 72.6973 23.3497 72.3675 23.7008C72.05 24.0395 71.6654 24.3099 71.2377 24.4951C70.7792 24.6861 70.2867 24.7845 69.7892 24.7845C69.2917 24.7845 68.7993 24.6861 68.3407 24.4951C67.9146 24.3111 67.5322 24.0404 67.2184 23.7008C66.8971 23.3466 66.6484 22.9339 66.486 22.4858C66.3049 21.9892 66.2152 21.4646 66.2211 20.9367C66.2142 20.4253 66.2988 19.9168 66.471 19.4346C66.6286 18.9887 66.878 18.58 67.2034 18.2345C67.5343 17.8877 67.9346 17.6131 68.3788 17.4282C68.823 17.2432 69.3012 17.1521 69.783 17.1605C70.2836 17.1552 70.7798 17.2529 71.2402 17.4475C71.6748 17.6309 72.0662 17.9014 72.39 18.2419C72.7111 18.5906 72.96 18.9984 73.1224 19.442C73.3021 19.9227 73.3919 20.4316 73.3874 20.9441C73.3908 21.4698 73.2993 21.9919 73.1174 22.4858Z" fill="#16132B"/>
<path d="M89.0326 23.8169C88.949 23.7397 88.8379 23.6985 88.7236 23.7022C88.6093 23.7059 88.5011 23.7543 88.4228 23.8367C88.1878 24.07 87.918 24.2661 87.6229 24.4183C87.1355 24.66 86.5957 24.7798 86.0507 24.7672C85.5598 24.7721 85.0731 24.6769 84.6209 24.4876C84.1951 24.3097 83.8125 24.044 83.4986 23.7081C83.1761 23.3613 82.9271 22.954 82.7662 22.5104C82.5842 22.0175 82.4944 21.4959 82.5013 20.9712C82.4952 20.4554 82.585 19.9429 82.7662 19.4592C82.9335 19.0148 83.1884 18.6076 83.5161 18.2616C83.8354 17.9215 84.2228 17.651 84.6534 17.4672C85.1133 17.2706 85.6098 17.172 86.1107 17.1777C86.5962 17.1786 87.0768 17.2736 87.5254 17.4573C87.8332 17.5804 88.114 17.7611 88.3528 17.9894C88.4342 18.0693 88.5443 18.1141 88.659 18.1141C88.7737 18.1141 88.8837 18.0693 88.9652 17.9894L90.3824 16.5863C90.4241 16.5451 90.4569 16.4959 90.4789 16.4417C90.5008 16.3876 90.5114 16.3296 90.51 16.2713C90.5086 16.213 90.4952 16.1556 90.4707 16.1025C90.4462 16.0495 90.4111 16.0019 90.3674 15.9627C89.8595 15.5067 89.2646 15.1558 88.6177 14.9308C87.784 14.6253 86.9022 14.4686 86.0132 14.4681C85.104 14.4603 84.2007 14.6137 83.3461 14.9209C82.5472 15.209 81.8147 15.6524 81.1915 16.225C80.5707 16.8015 80.0801 17.5014 79.7517 18.2789C79.0619 19.9977 79.0619 21.9125 79.7517 23.6314C80.076 24.4099 80.5574 25.1147 81.1665 25.7026C81.7777 26.2855 82.5011 26.7408 83.2936 27.0413C84.1486 27.3618 85.0565 27.5213 85.9707 27.5115C86.9354 27.5304 87.8929 27.343 88.7777 26.9621C89.4256 26.6774 90.0179 26.2821 90.5274 25.7941C90.5697 25.7539 90.6033 25.7057 90.6263 25.6524C90.6492 25.599 90.6611 25.5416 90.6611 25.4836C90.6611 25.4256 90.6492 25.3681 90.6263 25.3148C90.6033 25.2614 90.5697 25.2132 90.5274 25.173L89.0326 23.8169Z" fill="#16132B"/>
<path d="M105.833 18.2542C105.511 17.4817 105.026 16.7864 104.41 16.2152C103.785 15.6444 103.049 15.2043 102.248 14.921C101.375 14.613 100.453 14.4597 99.5262 14.4682C98.6031 14.459 97.6856 14.6124 96.8167 14.921C96.0183 15.2055 95.2856 15.6455 94.662 16.2152C94.0461 16.7864 93.5612 17.4817 93.2398 18.2542C92.8875 19.1049 92.7131 20.0174 92.7274 20.9367C92.7153 21.8565 92.8895 22.7695 93.2398 23.6216C93.5618 24.406 94.0463 25.115 94.662 25.7027C95.282 26.2878 96.0149 26.7431 96.8167 27.0414C97.683 27.3618 98.6015 27.5211 99.5262 27.5116C100.455 27.5205 101.377 27.3611 102.248 27.0414C103.053 26.7443 103.788 26.2889 104.41 25.7027C105.026 25.115 105.511 24.406 105.833 23.6216C106.179 22.7686 106.349 21.8557 106.333 20.9367C106.351 20.0183 106.181 19.1057 105.833 18.2542ZM102.848 22.4857C102.682 22.936 102.427 23.349 102.098 23.7007C101.781 24.0395 101.396 24.3099 100.968 24.4951C100.51 24.6861 100.017 24.7845 99.52 24.7845C99.0225 24.7845 98.53 24.6861 98.0715 24.4951C97.6453 24.311 97.2629 24.0404 96.9491 23.7007C96.6278 23.3465 96.3791 22.9339 96.2168 22.4857C95.8701 21.4976 95.8701 20.4227 96.2168 19.4346C96.3752 18.9885 96.6255 18.5799 96.9517 18.2344C97.2823 17.888 97.6822 17.6136 98.1259 17.4286C98.5696 17.2437 99.0473 17.1524 99.5287 17.1605C100.029 17.1549 100.526 17.2526 100.986 17.4475C101.414 17.6304 101.799 17.8982 102.118 18.2344C102.439 18.5838 102.687 18.9914 102.851 19.4346C103.03 19.9152 103.12 20.4242 103.116 20.9367C103.121 21.4647 103.03 21.9894 102.848 22.4857Z" fill="#16132B"/>
<path d="M60.9595 24.7207H56.1928C56.0779 24.7207 55.9677 24.6757 55.8862 24.5955C55.8047 24.5152 55.7586 24.4064 55.7579 24.2926V15.3842C55.7582 15.3279 55.7473 15.272 55.7257 15.2199C55.7041 15.1679 55.6722 15.1205 55.632 15.0807C55.5918 15.0409 55.544 15.0094 55.4914 14.988C55.4387 14.9666 55.3824 14.9557 55.3255 14.9561H53.1434C53.0865 14.9557 53.0301 14.9666 52.9775 14.988C52.9249 15.0094 52.8771 15.0409 52.8369 15.0807C52.7966 15.1205 52.7648 15.1679 52.7432 15.2199C52.7216 15.272 52.7106 15.3279 52.7109 15.3842V26.9033C52.7109 27.0168 52.7565 27.1257 52.8376 27.206C52.9187 27.2862 53.0287 27.3314 53.1434 27.3314H60.9495C61.0071 27.3323 61.0642 27.322 61.1177 27.301C61.1712 27.2799 61.2199 27.2486 61.261 27.2088C61.3022 27.1689 61.3349 27.1214 61.3574 27.069C61.3799 27.0166 61.3916 26.9602 61.3919 26.9033V25.1537C61.3923 25.0972 61.3813 25.0411 61.3598 24.9888C61.3382 24.9364 61.3065 24.8888 61.2663 24.8485C61.2262 24.8083 61.1784 24.7763 61.1258 24.7544C61.0731 24.7325 61.0166 24.721 60.9595 24.7207Z" fill="#16132B"/>
</g>
<defs>
<clipPath id="clip0_4359_36464">
<rect width="105.587" height="27.0222" fill="white" transform="translate(0.757812 0.489258)"/>
</clipPath>
</defs>
</svg>
